<svg xmlns="http://www.w3.org/2000/svg" height="90" width="76"><path d="M9.473 0A2.418 3.05 0 007 3.049v24.728A28 25 0 005 37a28 25 0 002.637 10.526 25.237 25.237 0 00-3.12 1.2A42.777 42.777 0 000 51.155l.533.844s1.986-1.256 4.4-2.361a23.79 23.79 0 013.17-1.205 28 25 0 001.221 1.898c-1.27.323-2.593.843-3.807 1.399C3.031 52.867 1 54.154 1 54.154l.533.844s1.986-1.254 4.4-2.36c1.208-.552 2.521-1.065 3.725-1.362.117-.03.226-.046.34-.07a28 25 0 001.602 1.877 11.33 11.33 0 00-1.18.222c-1.298.32-2.66.855-3.903 1.424C4.03 55.867 2 57.155 2 57.155l.533.843s1.985-1.254 4.4-2.359c1.208-.553 2.521-1.066 3.725-1.363a8.282 8.282 0 011.863-.258 28 25 0 001.555 1.365A21 20 0 0012 64a21 20 0 009.14 16.506 5.896 8.076 78.404 00-1.972 5.443 5.896 8.076 78.404 009.466 3.725 5.896 8.076 78.404 004.364-2.309 8.076 5.896 11.596 004.365 2.309 8.076 5.896 11.596 009.466-3.723 8.076 5.896 11.596 00-1.988-5.46 21 20 0 005.483-5.19c1.715.803 3.387 2.15 5.09 3.51 4.217 3.366 9.822 4.292 14.114 1.683 4.293-2.608 6.526-7.917 6.471-14.472A4 4 0 0071.905 62 4 4 0 0068 66.09c.04 4.753-1.49 6.879-2.625 7.568-1.134.69-2.621.776-4.97-1.1-1.56-1.244-3.78-3.202-6.829-4.573A21 20 0 0054 64a21 20 0 00-2.07-8.613 28 25 0 001.531-1.369c.563.01 1.198.09 1.88.258 1.203.297 2.516.81 3.724 1.363a41.895 41.895 0 014.4 2.36l.535-.844s-2.032-1.288-4.52-2.426c-1.243-.57-2.602-1.103-3.9-1.424a11.48 11.48 0 00-1.15-.219 28 25 0 001.598-1.875c.105.023.205.038.312.064 1.204.298 2.517.81 3.725 1.364a41.917 41.917 0 014.4 2.36l.535-.845s-2.032-1.287-4.52-2.425c-1.22-.56-2.551-1.082-3.827-1.405a28 25 0 001.222-1.898c1.052.304 2.158.739 3.19 1.21a41.692 41.692 0 014.4 2.362l.535-.844s-2.032-1.289-4.52-2.427a25.129 25.129 0 00-3.118-1.201A28 25 0 0060.999 37a28 25 0 00-2-9.252v-24.7A2.418 3.05 0 0056.525 0a2.418 3.05 0 00-1.153.406L38.716 12.534A28 25 0 0033 12a28 25 0 00-5.694.55L10.625.407A2.418 3.05 0 009.473.001zM10 6l5.681 11.36A28 25 0 0010 22.754V5.999zm46 0v16.79a28 25 0 00-5.692-5.408L55.999 6zM18.602 34.002a11.65 11.65 0 013.002.338c3.995.99 7.021 3.982 7.387 7.576-2.238 2.922-6.427 4.11-10.428 3.126-3.994-.99-7.023-3.982-7.388-7.576 1.678-2.192 4.455-3.409 7.425-3.465zm28.789 0c2.97.056 5.747 1.273 7.426 3.465-.365 3.594-3.394 6.586-7.388 7.576-4 .985-8.19-.204-10.428-3.126.366-3.594 3.393-6.585 7.387-7.576 1-.246 2.012-.357 3.002-.338zM22.498 36a2.5 3 0 00-2.5 3 2.5 3 0 002.5 3 2.5 3 0 002.5-3 2.5 3 0 00-2.5-3zm21.001 0a2.5 3 0 00-2.5 3 2.5 3 0 002.5 3 2.5 3 0 002.498-3 2.5 3 0 00-2.498-3zM33 47.998a3 2 0 013 2 3 2 0 01-3 2 3 2 0 01-3-2 3 2 0 013-2z"/></svg>