<svg xmlns="http://www.w3.org/2000/svg" width="200" height="200"><path vector-effect="non-scaling-stroke" d="M99.14.888c54.776 0 99.232 44.456 99.232 99.232 0 54.776-44.456 99.232-99.232 99.232-54.776 0-99.232-44.456-99.232-99.232C-.092 45.344 44.364.888 99.14.888z" fill="#ffdca6"/><path vector-effect="non-scaling-stroke" d="M99.15 14.909c47.037 0 85.211 38.174 85.211 85.211s-38.174 85.211-85.211 85.211-85.211-38.174-85.211-85.211S52.113 14.909 99.15 14.909z" fill="#f61111"/><path vector-effect="non-scaling-stroke" d="M99.15 20.951c43.701 0 79.169 35.468 79.169 79.169 0 43.701-35.468 79.169-79.169 79.169-43.701 0-79.169-35.468-79.169-79.169 0-43.701 35.468-79.169 79.169-79.169z" fill="gold"/><path vector-effect="non-scaling-stroke" d="M135.713 107.745c5.335 2.987 7.24 9.742 4.252 15.078-2.987 5.335-9.742 7.24-15.078 4.252-5.335-2.987-7.24-9.742-4.252-15.078 2.987-5.335 9.742-7.24 15.078-4.252z" fill="#ffb212"/><path vector-effect="non-scaling-stroke" d="M132.854 112.85a5.228 5.228 0 012.006 7.114 5.228 5.228 0 01-7.114 2.006 5.228 5.228 0 01-2.006-7.114 5.228 5.228 0 017.114-2.006z" fill="gold"/><path vector-effect="non-scaling-stroke" d="M119.838 111.185l22.107 12.38-5.628 10.048-22.106-12.38z" fill="gold"/><path vector-effect="non-scaling-stroke" d="M99.15.888v198.464zM1.068 100.12h198.464zm28.061-70.021L169.17 170.14zm140.042 0L29.13 170.14z" stroke="#fff" fill="none"/><path vector-effect="non-scaling-stroke" d="M33.93 81.717a6.115 6.115 0 016.113 6.113 6.115 6.115 0 01-6.113 6.113 6.115 6.115 0 01-6.113-6.113 6.115 6.115 0 016.113-6.113z" fill="#f72f3a"/><path vector-effect="non-scaling-stroke" d="M37.25 130.23l7.89 4.648-4.93 8.453-7.89-4.65z" fill="#cacaca"/><path vector-effect="non-scaling-stroke" d="M44.47 58.058a6.154 6.154 0 016.152 6.152 6.154 6.154 0 01-6.152 6.152 6.154 6.154 0 01-6.152-6.152 6.154 6.154 0 016.152-6.152zm15.12 17.46a6.154 6.154 0 016.152 6.152 6.154 6.154 0 01-6.152 6.152 6.154 6.154 0 01-6.152-6.152 6.154 6.154 0 016.152-6.152z" fill="#f72f3a"/><path vector-effect="non-scaling-stroke" d="M45.926 124.332c4.293 2.53 6.408 6.948 4.722 9.861-1.687 2.914-6.54 3.225-10.834.695-4.293-2.53-6.408-6.948-4.722-9.861 1.687-2.914 6.54-3.225 10.834-.695z" fill="#cacaca"/><path vector-effect="non-scaling-stroke" d="M151 59.59l7.89 4.508-4.93 8.452-7.89-4.508z" fill="#24aa37"/><path vector-effect="non-scaling-stroke" d="M65.487 106.829c-2.914 1.687-4.345 4.673-3.195 6.667 1.15 1.993 4.448 2.242 7.361.555 2.914-1.687 4.345-4.673 3.195-6.667-1.15-1.993-4.448-2.242-7.361-.555z" fill="#cacaca"/><path vector-effect="non-scaling-stroke" d="M119.424 89.646l4.65 2.677-2.818 4.93-4.65-2.676zm40.242-36.034c4.293 2.454 6.408 6.81 4.722 9.722-1.687 2.914-6.54 3.287-10.834.834-4.293-2.454-6.408-6.81-4.722-9.722 1.687-2.914 6.54-3.287 10.834-.834z" fill="#24aa37"/><path vector-effect="non-scaling-stroke" d="M124.566 86.184c2.53 1.457 3.774 4.008 2.777 5.695-.996 1.687-3.859 1.873-6.389.417-2.53-1.457-3.774-4.008-2.777-5.695.996-1.687 3.859-1.873 6.389-.417z" fill="#24aa37"/><path vector-effect="non-scaling-stroke" d="M71.396 110.923l-5.353 3.099 3.38 5.775 5.354-3.099zm-23.917-3.495c1.84 3.143 1.591 6.69-.556 7.916-2.146 1.227-5.382-.328-7.222-3.472-1.84-3.143-1.591-6.69.556-7.916 2.146-1.227 5.382.328 7.222 3.472z" fill="#cacaca"/><path vector-effect="non-scaling-stroke" d="M39.719 107.99l3.38 5.777-6.198 3.662-3.38-5.776zm22.848 14.23c0 2.377-1.307 4.306-2.917 4.306-1.61 0-2.917-1.93-2.917-4.306 0-2.377 1.307-4.306 2.917-4.306 1.61 0 2.917 1.93 2.917 4.306z" fill="#cacaca"/><path vector-effect="non-scaling-stroke" d="M58.054 120.036v4.368h-4.648v-4.368z" fill="#cacaca"/><path vector-effect="non-scaling-stroke" d="M73.98 86.83a3.56 3.56 0 013.56 3.56 3.56 3.56 0 01-3.56 3.56 3.56 3.56 0 01-3.56-3.56 3.56 3.56 0 013.56-3.56z" fill="#f72f3a"/><path vector-effect="non-scaling-stroke" d="M63.66 36.376a8.137 8.137 0 018.134 8.134 8.137 8.137 0 01-8.134 8.134 8.137 8.137 0 01-8.134-8.134 8.137 8.137 0 018.134-8.134z" fill="#e8aecf"/><path vector-effect="non-scaling-stroke" d="M66.765 43.319a.597.597 0 110 1.193.597.597 0 010-1.193zm-8.261-.597a.597.597 0 110 1.194.597.597 0 010-1.194zm6.581 6.057a.597.597 0 110 1.193.597.597 0 010-1.193zm-1.425-6.65a.597.597 0 110 1.193.597.597 0 010-1.193zm3.105-3.785a1.085 1.085 0 11-.001 2.17 1.085 1.085 0 010-2.17zm-5.6 6.622a1.085 1.085 0 11-.001 2.17 1.085 1.085 0 010-2.17zm0-5.536a1.085 1.085 0 11-.001 2.17 1.085 1.085 0 010-2.17zm8.637 2.696a.597.597 0 110 1.193.597.597 0 010-1.193zm-1.344 3.069a1.942 1.942 0 11-.002 3.884 1.942 1.942 0 01.002-3.884zm-7.41 3.573a1.204 1.204 0 11-.001 2.408 1.204 1.204 0 010-2.408zm-3.141-2.228a.597.597 0 110 1.193.597.597 0 010-1.193z" fill="#fff"/><path vector-effect="non-scaling-stroke" d="M87.47 27.161a5.23 5.23 0 015.229 5.229 5.23 5.23 0 01-5.23 5.229 5.23 5.23 0 01-5.228-5.23 5.23 5.23 0 015.229-5.228z" fill="#e8aecf"/><path vector-effect="non-scaling-stroke" d="M89.466 31.624a.384.384 0 110 .767.384.384 0 010-.767zm-5.311-.384a.384.384 0 110 .768.384.384 0 010-.767zm4.231 3.894a.384.384 0 110 .767.384.384 0 010-.767zm-.916-4.275a.384.384 0 110 .767.384.384 0 010-.767zm1.996-2.433a.697.697 0 110 1.395.697.697 0 010-1.395zm-3.6 4.257a.697.697 0 110 1.395.697.697 0 010-1.395zm0-3.559a.697.697 0 110 1.395.697.697 0 010-1.395zm5.552 1.733a.384.384 0 110 .767.384.384 0 010-.767zm-.864 1.973a1.248 1.248 0 110 2.497 1.248 1.248 0 010-2.497zm-4.764 2.297a.774.774 0 110 1.548.774.774 0 010-1.548zm-2.018-1.432a.384.384 0 110 .767.384.384 0 010-.767z" fill="#fff"/><path vector-effect="non-scaling-stroke" d="M84.09 42.971a5.23 5.23 0 015.229 5.229 5.23 5.23 0 01-5.23 5.229 5.23 5.23 0 01-5.228-5.23 5.23 5.23 0 015.229-5.228z" fill="#e8aecf"/><path vector-effect="non-scaling-stroke" d="M86.086 47.434a.384.384 0 110 .767.384.384 0 010-.767zm-5.311-.384a.384.384 0 110 .768.384.384 0 010-.767zm4.231 3.894a.384.384 0 110 .767.384.384 0 010-.767zm-.916-4.275a.384.384 0 110 .767.384.384 0 010-.767zm1.996-2.433a.697.697 0 110 1.395.697.697 0 010-1.395zm-3.6 4.257a.697.697 0 110 1.395.697.697 0 010-1.395zm0-3.559a.697.697 0 110 1.395.697.697 0 010-1.395zm5.552 1.733a.384.384 0 110 .767.384.384 0 010-.767zm-.864 1.973a1.248 1.248 0 110 2.497 1.248 1.248 0 010-2.497zm-4.764 2.297a.774.774 0 110 1.548.774.774 0 010-1.548zm-2.018-1.432a.384.384 0 110 .767.384.384 0 010-.767z" fill="#fff"/><path vector-effect="non-scaling-stroke" d="M77.55 58.981a5.23 5.23 0 015.229 5.229 5.23 5.23 0 01-5.23 5.229 5.23 5.23 0 01-5.228-5.23 5.23 5.23 0 015.229-5.228z" fill="#e8aecf"/><path vector-effect="non-scaling-stroke" d="M79.546 63.444a.384.384 0 110 .767.384.384 0 010-.767zm-5.311-.384a.384.384 0 110 .768.384.384 0 010-.767zm4.231 3.894a.384.384 0 110 .767.384.384 0 010-.767zm-.916-4.275a.384.384 0 110 .767.384.384 0 010-.767zm1.996-2.433a.697.697 0 110 1.395.697.697 0 010-1.395zm-3.6 4.257a.697.697 0 110 1.395.697.697 0 010-1.395zm0-3.559a.697.697 0 110 1.395.697.697 0 010-1.395zm5.552 1.733a.384.384 0 110 .767.384.384 0 010-.767zm-.864 1.973a1.248 1.248 0 110 2.497 1.248 1.248 0 010-2.497zm-4.764 2.297a.774.774 0 110 1.548.774.774 0 010-1.548zm-2.018-1.432a.384.384 0 110 .767.384.384 0 010-.767z" fill="#fff"/><path vector-effect="non-scaling-stroke" d="M90.62 64.962a4.65 4.65 0 014.648 4.648 4.65 4.65 0 01-4.648 4.648 4.65 4.65 0 01-4.648-4.648 4.65 4.65 0 014.648-4.648z" fill="#e8aecf"/><path vector-effect="non-scaling-stroke" d="M92.394 68.93a.341.341 0 110 .681.341.341 0 010-.682zm-4.72-.342a.341.341 0 110 .682.341.341 0 010-.682zm3.76 3.462a.341.341 0 110 .681.341.341 0 010-.682zm-.814-3.8a.341.341 0 110 .681.341.341 0 010-.682zm1.774-2.163a.62.62 0 110 1.24.62.62 0 010-1.24zm-3.2 3.783a.62.62 0 110 1.24.62.62 0 010-1.24zm0-3.163a.62.62 0 110 1.24.62.62 0 010-1.24zm4.936 1.541a.341.341 0 110 .681.341.341 0 010-.681zm-.768 1.754a1.11 1.11 0 11-.001 2.219 1.11 1.11 0 010-2.22zm-4.235 2.041a.688.688 0 110 1.376.688.688 0 010-1.376zm-1.794-1.273a.341.341 0 110 .682.341.341 0 010-.682z" fill="#fff"/><path vector-effect="non-scaling-stroke" d="M113.26 25.774a8.509 8.509 0 018.506 8.506 8.509 8.509 0 01-8.506 8.506 8.509 8.509 0 01-8.506-8.506 8.509 8.509 0 018.506-8.506z" fill="#cfb5c8"/><path vector-effect="non-scaling-stroke" d="M113.26 27.688a6.595 6.595 0 016.592 6.592 6.595 6.595 0 01-6.592 6.592 6.595 6.595 0 01-6.592-6.592 6.595 6.595 0 016.592-6.592z" fill="gold"/><path vector-effect="non-scaling-stroke" d="M106.3 71.917a5.415 5.415 0 015.413 5.413 5.415 5.415 0 01-5.413 5.413 5.415 5.415 0 01-5.413-5.413 5.415 5.415 0 015.413-5.413z" fill="#cfb5c8"/><path vector-effect="non-scaling-stroke" d="M106.3 73.135a4.197 4.197 0 014.195 4.195 4.197 4.197 0 01-4.195 4.195 4.197 4.197 0 01-4.195-4.195 4.197 4.197 0 014.195-4.195z" fill="gold"/><path vector-effect="non-scaling-stroke" d="M121.18 57.784a6.188 6.188 0 016.186 6.186 6.188 6.188 0 01-6.186 6.186 6.188 6.188 0 01-6.186-6.186 6.188 6.188 0 016.186-6.186z" fill="#cfb5c8"/><path vector-effect="non-scaling-stroke" d="M121.18 59.176a4.796 4.796 0 014.794 4.794 4.796 4.796 0 01-4.794 4.794 4.796 4.796 0 01-4.794-4.794 4.796 4.796 0 014.794-4.794z" fill="gold"/><path vector-effect="non-scaling-stroke" d="M133.37 37.244a7.348 7.348 0 017.346 7.346 7.348 7.348 0 01-7.346 7.346 7.348 7.348 0 01-7.346-7.346 7.348 7.348 0 017.346-7.346z" fill="#cfb5c8"/><path vector-effect="non-scaling-stroke" d="M133.37 38.897a5.695 5.695 0 015.693 5.693 5.695 5.695 0 01-5.693 5.693 5.695 5.695 0 01-5.693-5.693 5.695 5.695 0 015.693-5.693z" fill="gold"/><path vector-effect="non-scaling-stroke" d="M109.45 60.877a3.094 3.094 0 010 6.186 3.094 3.094 0 010-6.186z" fill="#cfb5c8"/><path vector-effect="non-scaling-stroke" d="M109.45 61.573a2.398 2.398 0 11-.002 4.796 2.398 2.398 0 01.002-4.796z" fill="gold"/><path vector-effect="non-scaling-stroke" d="M106.3 42.424a2.707 2.707 0 010 5.412 2.707 2.707 0 010-5.412z" fill="#cfb5c8"/><path vector-effect="non-scaling-stroke" d="M106.3 43.032a2.098 2.098 0 11-.002 4.197 2.098 2.098 0 01.002-4.197z" fill="gold"/><path vector-effect="non-scaling-stroke" d="M125.64 49.884a2.707 2.707 0 010 5.412 2.707 2.707 0 010-5.412z" fill="#cfb5c8"/><path vector-effect="non-scaling-stroke" d="M125.64 50.492a2.098 2.098 0 11-.002 4.197 2.098 2.098 0 01.002-4.197z" fill="gold"/><path vector-effect="non-scaling-stroke" d="M113.26 48.594a5.028 5.028 0 015.026 5.026 5.028 5.028 0 01-5.026 5.026 5.028 5.028 0 01-5.026-5.026 5.028 5.028 0 015.026-5.026z" fill="#cfb5c8"/><path vector-effect="non-scaling-stroke" d="M113.26 49.725a3.897 3.897 0 013.895 3.895 3.897 3.897 0 01-3.895 3.895 3.897 3.897 0 01-3.895-3.895 3.897 3.897 0 013.895-3.895z" fill="gold"/><path vector-effect="non-scaling-stroke" d="M163.274 85.498v7.044h-7.608v-7.044z" fill="#24aa37"/><path vector-effect="non-scaling-stroke" d="M170.652 89.01c0 3.833-2.115 6.944-4.722 6.944s-4.722-3.11-4.722-6.944c0-3.833 2.115-6.944 4.722-6.944s4.722 3.11 4.722 6.944zm-26.798-2.936l-2.677 4.65-4.93-2.818 2.676-4.65z" fill="#24aa37"/><path vector-effect="non-scaling-stroke" d="M147.464 91.236c-1.456 2.53-4.07 3.774-5.833 2.777-1.763-.996-2.012-3.859-.555-6.389 1.456-2.53 4.07-3.774 5.833-2.777 1.763.996 2.012 3.859.555 6.389zm-9.925-13.188l3.663-6.339 6.339 3.663-3.663 6.339z" fill="#24aa37"/><path vector-effect="non-scaling-stroke" d="M132.962 71.129c1.994-3.45 5.416-5.192 7.64-3.889 2.222 1.303 2.41 5.161.416 8.611-1.994 3.45-5.416 5.192-7.64 3.889-2.222-1.303-2.41-5.161-.416-8.611z" fill="#24aa37"/><path vector-effect="non-scaling-stroke" d="M160.62 104.348c5.549 0 10.052 4.503 10.052 10.052 0 5.549-4.503 10.052-10.052 10.052-5.549 0-10.052-4.503-10.052-10.052 0-5.549 4.503-10.052 10.052-10.052z" fill="#ffb212"/><path vector-effect="non-scaling-stroke" d="M160.62 109.658a4.744 4.744 0 014.742 4.742 4.744 4.744 0 01-4.742 4.742 4.744 4.744 0 01-4.742-4.742 4.744 4.744 0 014.742-4.742z" fill="gold"/><path vector-effect="non-scaling-stroke" d="M149.577 114.11h22.99v10.45h-22.99z" fill="gold"/><path vector-effect="non-scaling-stroke" d="M158.366 138.116c-4.695 2.774-10.757 1.215-13.532-3.48-2.774-4.695-1.215-10.757 3.48-13.532 4.695-2.774 10.757-1.215 13.532 3.48 2.774 4.695 1.215 10.757-3.48 13.532z" fill="#ffb212"/><path vector-effect="non-scaling-stroke" d="M155.711 133.623a4.663 4.663 0 01-6.384-1.642 4.663 4.663 0 011.642-6.384 4.663 4.663 0 016.384 1.642 4.663 4.663 0 01-1.642 6.384z" fill="gold"/><path vector-effect="non-scaling-stroke" d="M162.83 124.334l-19.454 11.496-5.226-8.843 19.454-11.495z" fill="gold"/><path vector-effect="non-scaling-stroke" d="M102.84 120.071c0-1.155.936-2.092 2.091-2.092h5.678c1.155 0 2.092.937 2.092 2.092v5.678a2.092 2.092 0 01-2.092 2.092h-5.678a2.092 2.092 0 01-2.092-2.092zm32.713 29.669a1.476 1.476 0 012.012-.553l3.455 1.966c.709.403.956 1.304.553 2.012l-1.966 3.455a1.476 1.476 0 01-2.012.553l-3.455-1.966a1.476 1.476 0 01-.553-2.012zm-27.077 16.323a1.468 1.468 0 012.003-.55l3.468 1.973a1.47 1.47 0 01.55 2.003l-1.973 3.468a1.468 1.468 0 01-2.003.55l-3.468-1.973a1.468 1.468 0 01-.55-2.003z" fill="#fff"/><path vector-effect="non-scaling-stroke" d="M110.85 145.1a5.221 5.221 0 015.22 5.22 5.221 5.221 0 01-5.22 5.22 5.221 5.221 0 01-5.22-5.22 5.221 5.221 0 015.22-5.22zm14.79 10.44a5.252 5.252 0 015.25 5.25 5.252 5.252 0 01-5.25 5.25 5.252 5.252 0 01-5.25-5.25 5.252 5.252 0 015.25-5.25zm-4.46-24.01a5.252 5.252 0 015.25 5.25 5.252 5.252 0 01-5.25 5.25 5.252 5.252 0 01-5.25-5.25 5.252 5.252 0 015.25-5.25z" fill="#fc9c1d"/><path vector-effect="non-scaling-stroke" d="M121.721 145.711h7.478v7.478h-7.478zm-15.326-15.151l6.465 3.715-3.715 6.465-6.465-3.715z" fill="#fff312"/></svg>