<?xml version="1.0" encoding="UTF-8" standalone="no" ?>
<!DOCTYPE svg PUBLIC "-//W3C//DTD SVG 1.1//EN" "http://www.w3.org/Graphics/SVG/1.1/DTD/svg11.dtd">
<svg xmlns="http://www.w3.org/2000/svg" xmlns:xlink="http://www.w3.org/1999/xlink" version="1.1" width="200" height="200" viewBox="0 0 200 200" xml:space="preserve">
<desc>Created with Fabric.js 4.6.0</desc>
<defs>
</defs>
<g transform="matrix(2.31 0 0 2.31 99.14 100.12)" id="e9ZTcjwAnpxpOQIra6_k2"  >
<path style="stroke: rgb(106,231,15); stroke-width: 0; stroke-dasharray: none; stroke-linecap: butt; stroke-dashoffset: 0; stroke-linejoin: miter; stroke-miterlimit: 4; fill: rgb(255,220,166); fill-rule: nonzero; opacity: 1;" vector-effect="non-scaling-stroke"  transform=" translate(0, 0)" d="M 0 -42.95775 C 23.71268 -42.95775 42.95775 -23.71268 42.95775 0 C 42.95775 23.71268 23.71268 42.95775 0 42.95775 C -23.71268 42.95775 -42.95775 23.71268 -42.95775 0 C -42.95775 -23.71268 -23.71268 -42.95775 0 -42.95775 z" stroke-linecap="round" />
</g>
<g transform="matrix(2.42 0 0 2.42 99.15 100.12)" id="uWDEM66pLcGKdiHkcfO5E"  >
<path style="stroke: rgb(30,147,42); stroke-width: 0; stroke-dasharray: none; stroke-linecap: butt; stroke-dashoffset: 0; stroke-linejoin: miter; stroke-miterlimit: 4; fill: rgb(246,17,17); fill-rule: nonzero; opacity: 1;" vector-effect="non-scaling-stroke"  transform=" translate(0, 0)" d="M 0 -35.21127 C 19.43662 -35.21127 35.21127 -19.436619999999998 35.21127 0 C 35.21127 19.43662 19.436619999999998 35.21127 0 35.21127 C -19.43662 35.21127 -35.21127 19.436619999999998 -35.21127 0 C -35.21127 -19.43662 -19.436619999999998 -35.21127 0 -35.21127 z" stroke-linecap="round" />
</g>
<g transform="matrix(17.37 0 0 17.37 99.15 100.12)" id="9FA-fNoKQkIKBn6JRPcLH"  >
<path style="stroke: rgb(255,243,18); stroke-width: 0; stroke-dasharray: none; stroke-linecap: butt; stroke-dashoffset: 0; stroke-linejoin: miter; stroke-miterlimit: 4; fill: rgb(255,215,0); fill-rule: nonzero; opacity: 1;" vector-effect="non-scaling-stroke"  transform=" translate(0, 0)" d="M 0 -4.55779 C 2.5159 -4.55779 4.55779 -2.5159 4.55779 0 C 4.55779 2.5159 2.5159 4.55779 0 4.55779 C -2.5159 4.55779 -4.55779 2.5159 -4.55779 0 C -4.55779 -2.5159 -2.5159 -4.55779 0 -4.55779 z" stroke-linecap="round" />
</g>
<g transform="matrix(0.25 0.14 -0.14 0.25 130.3 117.41)" id="FuGFEtuaTW437UJ_WTDAX"  >
<g style="" vector-effect="non-scaling-stroke"   >
		<g transform="matrix(1.22 0 0 1.22 0 0)" id="r8d1a7hk14E08moYN-Z_1"  >
<path style="stroke: rgb(255,243,18); stroke-width: 0; stroke-dasharray: none; stroke-linecap: butt; stroke-dashoffset: 0; stroke-linejoin: miter; stroke-miterlimit: 4; fill: rgb(255,178,18); fill-rule: nonzero; opacity: 1;" vector-effect="non-scaling-stroke"  transform=" translate(0, 0)" d="M 0 -31.69014 C 17.49296 -31.69014 31.69014 -17.49296 31.69014 0 C 31.69014 17.49296 17.49296 31.69014 0 31.69014 C -17.49296 31.69014 -31.69014 17.49296 -31.69014 0 C -31.69014 -17.49296 -17.49296 -31.69014 0 -31.69014 z" stroke-linecap="round" />
</g>
		<g transform="matrix(0.7 0 0 0.7 0 0)" id="ZZZ3QvqOtkGppGAqBDp2L"  >
<path style="stroke: rgb(217,200,19); stroke-width: 0; stroke-dasharray: none; stroke-linecap: butt; stroke-dashoffset: 0; stroke-linejoin: miter; stroke-miterlimit: 4; fill: rgb(255,215,0); fill-rule: nonzero; opacity: 1;" vector-effect="non-scaling-stroke"  transform=" translate(0, 0)" d="M 0 -26.05634 C 14.3831 -26.05634 26.05634 -14.383099999999999 26.05634 0 C 26.05634 14.3831 14.383099999999999 26.05634 0 26.05634 C -14.3831 26.05634 -26.05634 14.383099999999999 -26.05634 0 C -26.05634 -14.3831 -14.383099999999999 -26.05634 0 -26.05634 z" stroke-linecap="round" />
</g>
		<g transform="matrix(0.99 0 0 0.45 1.74 18.98)" id="RBv2OLeg-1Ra0o7QdsVzp"  >
<path style="stroke: rgb(93,219,44); stroke-width: 0; stroke-dasharray: none; stroke-linecap: butt; stroke-dashoffset: 0; stroke-linejoin: miter; stroke-miterlimit: 4; fill: rgb(255,215,0); fill-rule: nonzero; opacity: 1;" vector-effect="non-scaling-stroke"  transform=" translate(0, 0)" d="M -44.65944 -44.65944 L 44.65945 -44.65944 L 44.65945 44.65945 L -44.65944 44.65945 z" stroke-linecap="round" />
</g>
</g>
</g>
<g transform="matrix(1 0 0 1 220.42 79.92)" id="hOFJY96pTEsDKXrCBKhhw"  >
<path style="stroke: rgb(0,0,0); stroke-width: 1; stroke-dasharray: none; stroke-linecap: butt; stroke-dashoffset: 0; stroke-linejoin: miter; stroke-miterlimit: 4; fill: rgb(255,255,255); fill-opacity: 0; fill-rule: nonzero; opacity: 1;" vector-effect="non-scaling-stroke"  transform=" translate(0, 0)" d="M 0 0" stroke-linecap="round" />
</g>
<g transform="matrix(2.31 0 0 2.31 99.15 100.12)" id="VOiNf2e_AOpC5nO_XyhKH"  >
<path style="stroke: rgb(255,255,255); stroke-width: 1; stroke-dasharray: none; stroke-linecap: butt; stroke-dashoffset: 0; stroke-linejoin: miter; stroke-miterlimit: 4; fill: rgb(255,255,255); fill-opacity: 0; fill-rule: nonzero; opacity: 1;" vector-effect="non-scaling-stroke"  transform=" translate(0, 0)" d="M 0 -42.95775 L 0 42.95774000000001 z" stroke-linecap="round" />
</g>
<g transform="matrix(0 -2.31 2.31 0 100.3 100.12)" id="Bwvzekg_cNLmUclu10WmX"  >
<path style="stroke: rgb(255,255,255); stroke-width: 1; stroke-dasharray: none; stroke-linecap: butt; stroke-dashoffset: 0; stroke-linejoin: miter; stroke-miterlimit: 4; fill: rgb(255,255,255); fill-opacity: 0; fill-rule: nonzero; opacity: 1;" vector-effect="non-scaling-stroke"  transform=" translate(0, 0)" d="M 0 -42.95775 L 0 42.95774000000001 z" stroke-linecap="round" />
</g>
<g transform="matrix(1.63 -1.63 1.63 1.63 99.15 100.12)" id="PgW-TDFcSCWksm9ZZYOTq"  >
<path style="stroke: rgb(255,255,255); stroke-width: 1; stroke-dasharray: none; stroke-linecap: butt; stroke-dashoffset: 0; stroke-linejoin: miter; stroke-miterlimit: 4; fill: rgb(255,255,255); fill-opacity: 0; fill-rule: nonzero; opacity: 1;" vector-effect="non-scaling-stroke"  transform=" translate(0, 0)" d="M 0 -42.95775 L 0 42.95774000000001 z" stroke-linecap="round" />
</g>
<g transform="matrix(1.63 1.63 -1.63 1.63 99.15 100.12)" id="KVzXHLXz7kg7PqkfiESiD"  >
<path style="stroke: rgb(255,255,255); stroke-width: 1; stroke-dasharray: none; stroke-linecap: butt; stroke-dashoffset: 0; stroke-linejoin: miter; stroke-miterlimit: 4; fill: rgb(255,255,255); fill-opacity: 0; fill-rule: nonzero; opacity: 1;" vector-effect="non-scaling-stroke"  transform=" translate(0, 0)" d="M 0 -42.95775 L 0 42.95774000000001 z" stroke-linecap="round" />
</g>
<g transform="matrix(1 0 0 1 194.83 90.39)" id="MUNga8bb2NRZfetIQtu8a"  >
<path style="stroke: rgb(255,255,255); stroke-width: 1; stroke-dasharray: none; stroke-linecap: butt; stroke-dashoffset: 0; stroke-linejoin: miter; stroke-miterlimit: 4; fill: rgb(255,255,255); fill-opacity: 0; fill-rule: nonzero; opacity: 1;" vector-effect="non-scaling-stroke"  transform=" translate(0, 0)" d="M 0 0" stroke-linecap="round" />
</g>
<g transform="matrix(1.58 0 0 1.58 33.93 87.83)" id="BSXLiyiufQZvmKbEqapGi"  >
<path style="stroke: rgb(255,243,18); stroke-width: 0; stroke-dasharray: none; stroke-linecap: butt; stroke-dashoffset: 0; stroke-linejoin: miter; stroke-miterlimit: 4; fill: rgb(247,47,58); fill-rule: nonzero; opacity: 1;" vector-effect="non-scaling-stroke"  transform=" translate(0, 0)" d="M 0 -3.86905 C 2.13571 -3.86905 3.86905 -2.13572 3.86905 0 C 3.86905 2.13571 2.13572 3.86905 0 3.86905 C -2.13571 3.86905 -3.86905 2.13572 -3.86905 0 C -3.86905 -2.13571 -2.13572 -3.86905 0 -3.86905 z" stroke-linecap="round" />
</g>
<g transform="matrix(0.56 0.33 -0.35 0.6 38.73 136.78)" id="5FobTW9KLIXbbnbawm0BM"  >
<path style="stroke: rgb(255,243,18); stroke-width: 0; stroke-dasharray: none; stroke-linecap: butt; stroke-dashoffset: 0; stroke-linejoin: miter; stroke-miterlimit: 4; fill: rgb(202,202,202); fill-rule: nonzero; opacity: 1;" vector-effect="non-scaling-stroke"  transform=" translate(0, 0)" d="M -7.04365 -7.04365 L 7.04365 -7.04365 L 7.04365 7.04365 L -7.04365 7.04365 z" stroke-linecap="round" />
</g>
<g transform="matrix(1.59 0 0 1.59 44.47 64.21)" id="PvnJk9lVa6FVrOGsg11E_"  >
<path style="stroke: rgb(255,243,18); stroke-width: 0; stroke-dasharray: none; stroke-linecap: butt; stroke-dashoffset: 0; stroke-linejoin: miter; stroke-miterlimit: 4; fill: rgb(247,47,58); fill-rule: nonzero; opacity: 1;" vector-effect="non-scaling-stroke"  transform=" translate(0, 0)" d="M 0 -3.86905 C 2.13571 -3.86905 3.86905 -2.13572 3.86905 0 C 3.86905 2.13571 2.13572 3.86905 0 3.86905 C -2.13571 3.86905 -3.86905 2.13572 -3.86905 0 C -3.86905 -2.13571 -2.13572 -3.86905 0 -3.86905 z" stroke-linecap="round" />
</g>
<g transform="matrix(1.59 0 0 1.59 59.59 81.67)" id="t6zUVWLJ4XjErX8sY9xyq"  >
<path style="stroke: rgb(255,243,18); stroke-width: 0; stroke-dasharray: none; stroke-linecap: butt; stroke-dashoffset: 0; stroke-linejoin: miter; stroke-miterlimit: 4; fill: rgb(247,47,58); fill-rule: nonzero; opacity: 1;" vector-effect="non-scaling-stroke"  transform=" translate(0, 0)" d="M 0 -3.86905 C 2.13571 -3.86905 3.86905 -2.13572 3.86905 0 C 3.86905 2.13571 2.13572 3.86905 0 3.86905 C -2.13571 3.86905 -3.86905 2.13572 -3.86905 0 C -3.86905 -2.13571 -2.13572 -3.86905 0 -3.86905 z" stroke-linecap="round" />
</g>
<g transform="matrix(0.56 0.33 -0.22 0.38 42.87 129.61)" id="GFMGMglekRaLGbAH4Cizd"  >
<path style="stroke: rgb(255,243,18); stroke-width: 0; stroke-dasharray: none; stroke-linecap: butt; stroke-dashoffset: 0; stroke-linejoin: miter; stroke-miterlimit: 4; fill: rgb(202,202,202); fill-rule: nonzero; opacity: 1;" vector-effect="non-scaling-stroke"  transform=" translate(0, 0)" d="M 0 -13.88889 C 7.66667 -13.88889 13.88889 -7.66667 13.88889 0 C 13.88889 7.66667 7.66667 13.88889 0 13.88889 C -7.66667 13.88889 -13.88889 7.66667 -13.88889 0 C -13.88889 -7.66667 -7.66667 -13.88889 0 -13.88889 z" stroke-linecap="round" />
</g>
<g transform="matrix(0.56 0.32 -0.35 0.6 152.48 66.07)" id="LMNRPJ8Mrt9qp7xFZtC5O"  >
<path style="stroke: rgb(255,243,18); stroke-width: 0; stroke-dasharray: none; stroke-linecap: butt; stroke-dashoffset: 0; stroke-linejoin: miter; stroke-miterlimit: 4; fill: rgb(36,170,55); fill-rule: nonzero; opacity: 1;" vector-effect="non-scaling-stroke"  transform=" translate(0, 0)" d="M -7.04365 -7.04365 L 7.04365 -7.04365 L 7.04365 7.04365 L -7.04365 7.04365 z" stroke-linecap="round" />
</g>
<g transform="matrix(-0.38 0.22 0.15 0.26 67.57 110.44)" id="r-o26ebCMps1J5MkNFRRS"  >
<path style="stroke: rgb(255,243,18); stroke-width: 0; stroke-dasharray: none; stroke-linecap: butt; stroke-dashoffset: 0; stroke-linejoin: miter; stroke-miterlimit: 4; fill: rgb(202,202,202); fill-rule: nonzero; opacity: 1;" vector-effect="non-scaling-stroke"  transform=" translate(0, 0)" d="M 0 -13.88889 C 7.66667 -13.88889 13.88889 -7.66667 13.88889 0 C 13.88889 7.66667 7.66667 13.88889 0 13.88889 C -7.66667 13.88889 -13.88889 7.66667 -13.88889 0 C -13.88889 -7.66667 -7.66667 -13.88889 0 -13.88889 z" stroke-linecap="round" />
</g>
<g transform="matrix(0.33 0.19 -0.2 0.35 120.34 93.45)" id="dNPWk43JnhiG_aLTNOdT3"  >
<path style="stroke: rgb(255,243,18); stroke-width: 0; stroke-dasharray: none; stroke-linecap: butt; stroke-dashoffset: 0; stroke-linejoin: miter; stroke-miterlimit: 4; fill: rgb(36,170,55); fill-rule: nonzero; opacity: 1;" vector-effect="non-scaling-stroke"  transform=" translate(0, 0)" d="M -7.04365 -7.04365 L 7.04365 -7.04365 L 7.04365 7.04365 L -7.04365 7.04365 z" stroke-linecap="round" />
</g>
<g transform="matrix(0.56 0.32 -0.22 0.38 156.61 58.89)" id="HW8zNKKEmWyd1P4fmBsBs"  >
<path style="stroke: rgb(255,243,18); stroke-width: 0; stroke-dasharray: none; stroke-linecap: butt; stroke-dashoffset: 0; stroke-linejoin: miter; stroke-miterlimit: 4; fill: rgb(36,170,55); fill-rule: nonzero; opacity: 1;" vector-effect="non-scaling-stroke"  transform=" translate(0, 0)" d="M 0 -13.88889 C 7.66667 -13.88889 13.88889 -7.66667 13.88889 0 C 13.88889 7.66667 7.66667 13.88889 0 13.88889 C -7.66667 13.88889 -13.88889 7.66667 -13.88889 0 C -13.88889 -7.66667 -7.66667 -13.88889 0 -13.88889 z" stroke-linecap="round" />
</g>
<g transform="matrix(0.33 0.19 -0.13 0.22 122.76 89.24)" id="TO08_B20fyF9_Tw1DDuAU"  >
<path style="stroke: rgb(255,243,18); stroke-width: 0; stroke-dasharray: none; stroke-linecap: butt; stroke-dashoffset: 0; stroke-linejoin: miter; stroke-miterlimit: 4; fill: rgb(36,170,55); fill-rule: nonzero; opacity: 1;" vector-effect="non-scaling-stroke"  transform=" translate(0, 0)" d="M 0 -13.88889 C 7.66667 -13.88889 13.88889 -7.66667 13.88889 0 C 13.88889 7.66667 7.66667 13.88889 0 13.88889 C -7.66667 13.88889 -13.88889 7.66667 -13.88889 0 C -13.88889 -7.66667 -7.66667 -13.88889 0 -13.88889 z" stroke-linecap="round" />
</g>
<g transform="matrix(-0.38 0.22 0.24 0.41 70.41 115.36)" id="wExZ0qjzeD6h7CWRcYZiP"  >
<path style="stroke: rgb(255,243,18); stroke-width: 0; stroke-dasharray: none; stroke-linecap: butt; stroke-dashoffset: 0; stroke-linejoin: miter; stroke-miterlimit: 4; fill: rgb(202,202,202); fill-rule: nonzero; opacity: 1;" vector-effect="non-scaling-stroke"  transform=" translate(0, 0)" d="M -7.04365 -7.04365 L 7.04365 -7.04365 L 7.04365 7.04365 L -7.04365 7.04365 z" stroke-linecap="round" />
</g>
<g transform="matrix(0.24 0.41 -0.28 0.16 43.59 109.65)" id="MkVq3WlbyhPowPFzFUM1e"  >
<path style="stroke: rgb(255,243,18); stroke-width: 0; stroke-dasharray: none; stroke-linecap: butt; stroke-dashoffset: 0; stroke-linejoin: miter; stroke-miterlimit: 4; fill: rgb(202,202,202); fill-rule: nonzero; opacity: 1;" vector-effect="non-scaling-stroke"  transform=" translate(0, 0)" d="M 0 -13.88889 C 7.66667 -13.88889 13.88889 -7.66667 13.88889 0 C 13.88889 7.66667 7.66667 13.88889 0 13.88889 C -7.66667 13.88889 -13.88889 7.66667 -13.88889 0 C -13.88889 -7.66667 -7.66667 -13.88889 0 -13.88889 z" stroke-linecap="round" />
</g>
<g transform="matrix(0.24 0.41 -0.44 0.26 38.31 112.71)" id="liRQurrJTVaP5SsS7lpWh"  >
<path style="stroke: rgb(255,243,18); stroke-width: 0; stroke-dasharray: none; stroke-linecap: butt; stroke-dashoffset: 0; stroke-linejoin: miter; stroke-miterlimit: 4; fill: rgb(202,202,202); fill-rule: nonzero; opacity: 1;" vector-effect="non-scaling-stroke"  transform=" translate(0, 0)" d="M -7.04365 -7.04365 L 7.04365 -7.04365 L 7.04365 7.04365 L -7.04365 7.04365 z" stroke-linecap="round" />
</g>
<g transform="matrix(0 0.31 -0.21 0 59.65 122.22)" id="EDToce5Z71pzAQkgG36rF"  >
<path style="stroke: rgb(255,243,18); stroke-width: 0; stroke-dasharray: none; stroke-linecap: butt; stroke-dashoffset: 0; stroke-linejoin: miter; stroke-miterlimit: 4; fill: rgb(202,202,202); fill-rule: nonzero; opacity: 1;" vector-effect="non-scaling-stroke"  transform=" translate(0, 0)" d="M 0 -13.88889 C 7.66667 -13.88889 13.88889 -7.66667 13.88889 0 C 13.88889 7.66667 7.66667 13.88889 0 13.88889 C -7.66667 13.88889 -13.88889 7.66667 -13.88889 0 C -13.88889 -7.66667 -7.66667 -13.88889 0 -13.88889 z" stroke-linecap="round" />
</g>
<g transform="matrix(0 0.31 -0.33 0 55.73 122.22)" id="I8FJGgPAF-YkARnlXGcWo"  >
<path style="stroke: rgb(255,243,18); stroke-width: 0; stroke-dasharray: none; stroke-linecap: butt; stroke-dashoffset: 0; stroke-linejoin: miter; stroke-miterlimit: 4; fill: rgb(202,202,202); fill-rule: nonzero; opacity: 1;" vector-effect="non-scaling-stroke"  transform=" translate(0, 0)" d="M -7.04365 -7.04365 L 7.04365 -7.04365 L 7.04365 7.04365 L -7.04365 7.04365 z" stroke-linecap="round" />
</g>
<g transform="matrix(0.92 0 0 0.92 73.98 90.39)" id="PedPX0IcehJyOp71BBr8V"  >
<path style="stroke: rgb(255,243,18); stroke-width: 0; stroke-dasharray: none; stroke-linecap: butt; stroke-dashoffset: 0; stroke-linejoin: miter; stroke-miterlimit: 4; fill: rgb(247,47,58); fill-rule: nonzero; opacity: 1;" vector-effect="non-scaling-stroke"  transform=" translate(0, 0)" d="M 0 -3.86905 C 2.13571 -3.86905 3.86905 -2.13572 3.86905 0 C 3.86905 2.13571 2.13572 3.86905 0 3.86905 C -2.13571 3.86905 -3.86905 2.13572 -3.86905 0 C -3.86905 -2.13571 -2.13572 -3.86905 0 -3.86905 z" stroke-linecap="round" />
</g>
<g transform="matrix(0.14 0 0 0.14 63.66 44.51)" id="M_XpMY9kvbmQPWK6EMbG9"  >
<g style="" vector-effect="non-scaling-stroke"   >
		<g transform="matrix(1 0 0 1 0 0)" id="gD9a_Io7T9Sw3L-INY9CA"  >
<path style="stroke: rgb(255,243,18); stroke-width: 0; stroke-dasharray: none; stroke-linecap: butt; stroke-dashoffset: 0; stroke-linejoin: miter; stroke-miterlimit: 4; fill: rgb(232,174,207); fill-rule: nonzero; opacity: 1;" vector-effect="non-scaling-stroke"  transform=" translate(-58.1, -58.1)" d="M 58.09859 0 C 90.16901 0 116.19718 26.02817 116.19718 58.09859 C 116.19718 90.16901 90.16901 116.19718 58.09859 116.19718 C 26.028170000000003 116.19718 0 90.16901 0 58.09859 C 0 26.028170000000003 26.02817 0 58.09859 0 z" stroke-linecap="round" />
</g>
		<g transform="matrix(0.55 0 0 0.55 22.18 -4.25)" id="NzszMUa6A5nsS2nJdxHzl"  >
<path style="stroke: rgb(255,243,18); stroke-width: 0; stroke-dasharray: none; stroke-linecap: butt; stroke-dashoffset: 0; stroke-linejoin: miter; stroke-miterlimit: 4; fill: rgb(255,255,255); fill-rule: nonzero; opacity: 1;" vector-effect="non-scaling-stroke"  transform=" translate(0, 0)" d="M 0 -7.74648 C 4.27606 -7.74648 7.74648 -4.27606 7.74648 0 C 7.74648 4.27606 4.27606 7.74648 0 7.74648 C -4.27606 7.74648 -7.74648 4.27606 -7.74648 0 C -7.74648 -4.27606 -4.27606 -7.74648 0 -7.74648 z" stroke-linecap="round" />
</g>
		<g transform="matrix(0.55 0 0 0.55 -36.83 -8.51)" id="wRlpbyZfx0nwyOx2oMHNR"  >
<path style="stroke: rgb(255,243,18); stroke-width: 0; stroke-dasharray: none; stroke-linecap: butt; stroke-dashoffset: 0; stroke-linejoin: miter; stroke-miterlimit: 4; fill: rgb(255,255,255); fill-rule: nonzero; opacity: 1;" vector-effect="non-scaling-stroke"  transform=" translate(0, 0)" d="M 0 -7.74648 C 4.27606 -7.74648 7.74648 -4.27606 7.74648 0 C 7.74648 4.27606 4.27606 7.74648 0 7.74648 C -4.27606 7.74648 -7.74648 4.27606 -7.74648 0 C -7.74648 -4.27606 -4.27606 -7.74648 0 -7.74648 z" stroke-linecap="round" />
</g>
		<g transform="matrix(0.55 0 0 0.55 10.18 34.75)" id="EyCL626ZVyd8Bbd4pJgo8"  >
<path style="stroke: rgb(255,243,18); stroke-width: 0; stroke-dasharray: none; stroke-linecap: butt; stroke-dashoffset: 0; stroke-linejoin: miter; stroke-miterlimit: 4; fill: rgb(255,255,255); fill-rule: nonzero; opacity: 1;" vector-effect="non-scaling-stroke"  transform=" translate(0, 0)" d="M 0 -7.74648 C 4.27606 -7.74648 7.74648 -4.27606 7.74648 0 C 7.74648 4.27606 4.27606 7.74648 0 7.74648 C -4.27606 7.74648 -7.74648 4.27606 -7.74648 0 C -7.74648 -4.27606 -4.27606 -7.74648 0 -7.74648 z" stroke-linecap="round" />
</g>
		<g transform="matrix(0.55 0 0 0.55 0 -12.75)" id="jisHUamgEz1xWFdiT6luE"  >
<path style="stroke: rgb(255,243,18); stroke-width: 0; stroke-dasharray: none; stroke-linecap: butt; stroke-dashoffset: 0; stroke-linejoin: miter; stroke-miterlimit: 4; fill: rgb(255,255,255); fill-rule: nonzero; opacity: 1;" vector-effect="non-scaling-stroke"  transform=" translate(0, 0)" d="M 0 -7.74648 C 4.27606 -7.74648 7.74648 -4.27606 7.74648 0 C 7.74648 4.27606 4.27606 7.74648 0 7.74648 C -4.27606 7.74648 -7.74648 4.27606 -7.74648 0 C -7.74648 -4.27606 -4.27606 -7.74648 0 -7.74648 z" stroke-linecap="round" />
</g>
		<g transform="matrix(1 0 0 1 22.18 -36.29)" id="ri4-l9X93iPQ8dFMVr9GH"  >
<path style="stroke: rgb(255,243,18); stroke-width: 0; stroke-dasharray: none; stroke-linecap: butt; stroke-dashoffset: 0; stroke-linejoin: miter; stroke-miterlimit: 4; fill: rgb(255,255,255); fill-rule: nonzero; opacity: 1;" vector-effect="non-scaling-stroke"  transform=" translate(-7.75, -7.75)" d="M 7.74648 0 C 12.02254 0 15.49296 3.47042 15.49296 7.74648 C 15.49296 12.02254 12.02254 15.49296 7.74648 15.49296 C 3.47042 15.49296 0 12.02254 0 7.74648 C 0 3.47042 3.47042 0 7.74648 0 z" stroke-linecap="round" />
</g>
		<g transform="matrix(1 0 0 1 -17.82 11.01)" id="nQMwPytB1-lvVtK3SkqQ0"  >
<path style="stroke: rgb(255,243,18); stroke-width: 0; stroke-dasharray: none; stroke-linecap: butt; stroke-dashoffset: 0; stroke-linejoin: miter; stroke-miterlimit: 4; fill: rgb(255,255,255); fill-rule: nonzero; opacity: 1;" vector-effect="non-scaling-stroke"  transform=" translate(-7.75, -7.75)" d="M 7.74648 0 C 12.02254 0 15.49296 3.47042 15.49296 7.74648 C 15.49296 12.02254 12.02254 15.49296 7.74648 15.49296 C 3.47042 15.49296 0 12.02254 0 7.74648 C 0 3.47042 3.47042 0 7.74648 0 z" stroke-linecap="round" />
</g>
		<g transform="matrix(1 0 0 1 -17.82 -28.54)" id="WBvO9imn1nZE2yB4DERQI"  >
<path style="stroke: rgb(255,243,18); stroke-width: 0; stroke-dasharray: none; stroke-linecap: butt; stroke-dashoffset: 0; stroke-linejoin: miter; stroke-miterlimit: 4; fill: rgb(255,255,255); fill-rule: nonzero; opacity: 1;" vector-effect="non-scaling-stroke"  transform=" translate(-7.75, -7.75)" d="M 7.74648 0 C 12.02254 0 15.49296 3.47042 15.49296 7.74648 C 15.49296 12.02254 12.02254 15.49296 7.74648 15.49296 C 3.47042 15.49296 0 12.02254 0 7.74648 C 0 3.47042 3.47042 0 7.74648 0 z" stroke-linecap="round" />
</g>
		<g transform="matrix(0.55 0 0 0.55 43.87 -12.77)" id="LLZoMoYhQ59mKW1Y2IWef"  >
<path style="stroke: rgb(255,243,18); stroke-width: 0; stroke-dasharray: none; stroke-linecap: butt; stroke-dashoffset: 0; stroke-linejoin: miter; stroke-miterlimit: 4; fill: rgb(255,255,255); fill-rule: nonzero; opacity: 1;" vector-effect="non-scaling-stroke"  transform=" translate(0, 0)" d="M 0 -7.74648 C 4.27606 -7.74648 7.74648 -4.27606 7.74648 0 C 7.74648 4.27606 4.27606 7.74648 0 7.74648 C -4.27606 7.74648 -7.74648 4.27606 -7.74648 0 C -7.74648 -4.27606 -4.27606 -7.74648 0 -7.74648 z" stroke-linecap="round" />
</g>
		<g transform="matrix(1.79 0 0 1.79 34.27 18.76)" id="vveSNzb8BfEQub-hL1yW7"  >
<path style="stroke: rgb(255,243,18); stroke-width: 0; stroke-dasharray: none; stroke-linecap: butt; stroke-dashoffset: 0; stroke-linejoin: miter; stroke-miterlimit: 4; fill: rgb(255,255,255); fill-rule: nonzero; opacity: 1;" vector-effect="non-scaling-stroke"  transform=" translate(0, 0)" d="M 0 -7.74648 C 4.27606 -7.74648 7.74648 -4.27606 7.74648 0 C 7.74648 4.27606 4.27606 7.74648 0 7.74648 C -4.27606 7.74648 -7.74648 4.27606 -7.74648 0 C -7.74648 -4.27606 -4.27606 -7.74648 0 -7.74648 z" stroke-linecap="round" />
</g>
		<g transform="matrix(1.11 0 0 1.11 -18.66 39.01)" id="-Bh-gSfG5CnZtdSe8T1Wx"  >
<path style="stroke: rgb(255,243,18); stroke-width: 0; stroke-dasharray: none; stroke-linecap: butt; stroke-dashoffset: 0; stroke-linejoin: miter; stroke-miterlimit: 4; fill: rgb(255,255,255); fill-rule: nonzero; opacity: 1;" vector-effect="non-scaling-stroke"  transform=" translate(0, 0)" d="M 0 -7.74648 C 4.27606 -7.74648 7.74648 -4.27606 7.74648 0 C 7.74648 4.27606 4.27606 7.74648 0 7.74648 C -4.27606 7.74648 -7.74648 4.27606 -7.74648 0 C -7.74648 -4.27606 -4.27606 -7.74648 0 -7.74648 z" stroke-linecap="round" />
</g>
		<g transform="matrix(0.55 0 0 0.55 -41.09 18.76)" id="PW76scHbKSNjnqSxUOX0g"  >
<path style="stroke: rgb(255,243,18); stroke-width: 0; stroke-dasharray: none; stroke-linecap: butt; stroke-dashoffset: 0; stroke-linejoin: miter; stroke-miterlimit: 4; fill: rgb(255,255,255); fill-rule: nonzero; opacity: 1;" vector-effect="non-scaling-stroke"  transform=" translate(0, 0)" d="M 0 -7.74648 C 4.27606 -7.74648 7.74648 -4.27606 7.74648 0 C 7.74648 4.27606 4.27606 7.74648 0 7.74648 C -4.27606 7.74648 -7.74648 4.27606 -7.74648 0 C -7.74648 -4.27606 -4.27606 -7.74648 0 -7.74648 z" stroke-linecap="round" />
</g>
</g>
</g>
<g transform="matrix(0.09 0 0 0.09 87.47 32.39)" id="1T5U-MbEZm5w6j46rFahG"  >
<g style="" vector-effect="non-scaling-stroke"   >
		<g transform="matrix(1 0 0 1 0 0)" id="d5JxiTFGxKfO8PZH3nReZ"  >
<path style="stroke: rgb(255,243,18); stroke-width: 0; stroke-dasharray: none; stroke-linecap: butt; stroke-dashoffset: 0; stroke-linejoin: miter; stroke-miterlimit: 4; fill: rgb(232,174,207); fill-rule: nonzero; opacity: 1;" vector-effect="non-scaling-stroke"  transform=" translate(-58.1, -58.1)" d="M 58.09859 0 C 90.16901 0 116.19718 26.02817 116.19718 58.09859 C 116.19718 90.16901 90.16901 116.19718 58.09859 116.19718 C 26.028170000000003 116.19718 0 90.16901 0 58.09859 C 0 26.028170000000003 26.02817 0 58.09859 0 z" stroke-linecap="round" />
</g>
		<g transform="matrix(0.55 0 0 0.55 22.18 -4.25)" id="bseKIzMS_L67SzAU-lm8A"  >
<path style="stroke: rgb(255,243,18); stroke-width: 0; stroke-dasharray: none; stroke-linecap: butt; stroke-dashoffset: 0; stroke-linejoin: miter; stroke-miterlimit: 4; fill: rgb(255,255,255); fill-rule: nonzero; opacity: 1;" vector-effect="non-scaling-stroke"  transform=" translate(0, 0)" d="M 0 -7.74648 C 4.27606 -7.74648 7.74648 -4.27606 7.74648 0 C 7.74648 4.27606 4.27606 7.74648 0 7.74648 C -4.27606 7.74648 -7.74648 4.27606 -7.74648 0 C -7.74648 -4.27606 -4.27606 -7.74648 0 -7.74648 z" stroke-linecap="round" />
</g>
		<g transform="matrix(0.55 0 0 0.55 -36.83 -8.51)" id="C699liwZmw0E4mms34_Zy"  >
<path style="stroke: rgb(255,243,18); stroke-width: 0; stroke-dasharray: none; stroke-linecap: butt; stroke-dashoffset: 0; stroke-linejoin: miter; stroke-miterlimit: 4; fill: rgb(255,255,255); fill-rule: nonzero; opacity: 1;" vector-effect="non-scaling-stroke"  transform=" translate(0, 0)" d="M 0 -7.74648 C 4.27606 -7.74648 7.74648 -4.27606 7.74648 0 C 7.74648 4.27606 4.27606 7.74648 0 7.74648 C -4.27606 7.74648 -7.74648 4.27606 -7.74648 0 C -7.74648 -4.27606 -4.27606 -7.74648 0 -7.74648 z" stroke-linecap="round" />
</g>
		<g transform="matrix(0.55 0 0 0.55 10.18 34.75)" id="nnGn7FQqXZGtn5qrHPI3h"  >
<path style="stroke: rgb(255,243,18); stroke-width: 0; stroke-dasharray: none; stroke-linecap: butt; stroke-dashoffset: 0; stroke-linejoin: miter; stroke-miterlimit: 4; fill: rgb(255,255,255); fill-rule: nonzero; opacity: 1;" vector-effect="non-scaling-stroke"  transform=" translate(0, 0)" d="M 0 -7.74648 C 4.27606 -7.74648 7.74648 -4.27606 7.74648 0 C 7.74648 4.27606 4.27606 7.74648 0 7.74648 C -4.27606 7.74648 -7.74648 4.27606 -7.74648 0 C -7.74648 -4.27606 -4.27606 -7.74648 0 -7.74648 z" stroke-linecap="round" />
</g>
		<g transform="matrix(0.55 0 0 0.55 0 -12.75)" id="KHQZUEjhy7X5MebwZ046s"  >
<path style="stroke: rgb(255,243,18); stroke-width: 0; stroke-dasharray: none; stroke-linecap: butt; stroke-dashoffset: 0; stroke-linejoin: miter; stroke-miterlimit: 4; fill: rgb(255,255,255); fill-rule: nonzero; opacity: 1;" vector-effect="non-scaling-stroke"  transform=" translate(0, 0)" d="M 0 -7.74648 C 4.27606 -7.74648 7.74648 -4.27606 7.74648 0 C 7.74648 4.27606 4.27606 7.74648 0 7.74648 C -4.27606 7.74648 -7.74648 4.27606 -7.74648 0 C -7.74648 -4.27606 -4.27606 -7.74648 0 -7.74648 z" stroke-linecap="round" />
</g>
		<g transform="matrix(1 0 0 1 22.18 -36.29)" id="XHzloOC-k6Eal7gc_ZY9y"  >
<path style="stroke: rgb(255,243,18); stroke-width: 0; stroke-dasharray: none; stroke-linecap: butt; stroke-dashoffset: 0; stroke-linejoin: miter; stroke-miterlimit: 4; fill: rgb(255,255,255); fill-rule: nonzero; opacity: 1;" vector-effect="non-scaling-stroke"  transform=" translate(-7.75, -7.75)" d="M 7.74648 0 C 12.02254 0 15.49296 3.47042 15.49296 7.74648 C 15.49296 12.02254 12.02254 15.49296 7.74648 15.49296 C 3.47042 15.49296 0 12.02254 0 7.74648 C 0 3.47042 3.47042 0 7.74648 0 z" stroke-linecap="round" />
</g>
		<g transform="matrix(1 0 0 1 -17.82 11.01)" id="i60JRJytHrNne5jnFzbdY"  >
<path style="stroke: rgb(255,243,18); stroke-width: 0; stroke-dasharray: none; stroke-linecap: butt; stroke-dashoffset: 0; stroke-linejoin: miter; stroke-miterlimit: 4; fill: rgb(255,255,255); fill-rule: nonzero; opacity: 1;" vector-effect="non-scaling-stroke"  transform=" translate(-7.75, -7.75)" d="M 7.74648 0 C 12.02254 0 15.49296 3.47042 15.49296 7.74648 C 15.49296 12.02254 12.02254 15.49296 7.74648 15.49296 C 3.47042 15.49296 0 12.02254 0 7.74648 C 0 3.47042 3.47042 0 7.74648 0 z" stroke-linecap="round" />
</g>
		<g transform="matrix(1 0 0 1 -17.82 -28.54)" id="Vov3FlPNLI547nZqtMYvJ"  >
<path style="stroke: rgb(255,243,18); stroke-width: 0; stroke-dasharray: none; stroke-linecap: butt; stroke-dashoffset: 0; stroke-linejoin: miter; stroke-miterlimit: 4; fill: rgb(255,255,255); fill-rule: nonzero; opacity: 1;" vector-effect="non-scaling-stroke"  transform=" translate(-7.75, -7.75)" d="M 7.74648 0 C 12.02254 0 15.49296 3.47042 15.49296 7.74648 C 15.49296 12.02254 12.02254 15.49296 7.74648 15.49296 C 3.47042 15.49296 0 12.02254 0 7.74648 C 0 3.47042 3.47042 0 7.74648 0 z" stroke-linecap="round" />
</g>
		<g transform="matrix(0.55 0 0 0.55 43.87 -12.77)" id="8nyKxxjXtCqApspIdkbyl"  >
<path style="stroke: rgb(255,243,18); stroke-width: 0; stroke-dasharray: none; stroke-linecap: butt; stroke-dashoffset: 0; stroke-linejoin: miter; stroke-miterlimit: 4; fill: rgb(255,255,255); fill-rule: nonzero; opacity: 1;" vector-effect="non-scaling-stroke"  transform=" translate(0, 0)" d="M 0 -7.74648 C 4.27606 -7.74648 7.74648 -4.27606 7.74648 0 C 7.74648 4.27606 4.27606 7.74648 0 7.74648 C -4.27606 7.74648 -7.74648 4.27606 -7.74648 0 C -7.74648 -4.27606 -4.27606 -7.74648 0 -7.74648 z" stroke-linecap="round" />
</g>
		<g transform="matrix(1.79 0 0 1.79 34.27 18.76)" id="Zy5JdRke8xY69aNb4c9l6"  >
<path style="stroke: rgb(255,243,18); stroke-width: 0; stroke-dasharray: none; stroke-linecap: butt; stroke-dashoffset: 0; stroke-linejoin: miter; stroke-miterlimit: 4; fill: rgb(255,255,255); fill-rule: nonzero; opacity: 1;" vector-effect="non-scaling-stroke"  transform=" translate(0, 0)" d="M 0 -7.74648 C 4.27606 -7.74648 7.74648 -4.27606 7.74648 0 C 7.74648 4.27606 4.27606 7.74648 0 7.74648 C -4.27606 7.74648 -7.74648 4.27606 -7.74648 0 C -7.74648 -4.27606 -4.27606 -7.74648 0 -7.74648 z" stroke-linecap="round" />
</g>
		<g transform="matrix(1.11 0 0 1.11 -18.66 39.01)" id="RE4K4XyWUU43yqmfYbPxm"  >
<path style="stroke: rgb(255,243,18); stroke-width: 0; stroke-dasharray: none; stroke-linecap: butt; stroke-dashoffset: 0; stroke-linejoin: miter; stroke-miterlimit: 4; fill: rgb(255,255,255); fill-rule: nonzero; opacity: 1;" vector-effect="non-scaling-stroke"  transform=" translate(0, 0)" d="M 0 -7.74648 C 4.27606 -7.74648 7.74648 -4.27606 7.74648 0 C 7.74648 4.27606 4.27606 7.74648 0 7.74648 C -4.27606 7.74648 -7.74648 4.27606 -7.74648 0 C -7.74648 -4.27606 -4.27606 -7.74648 0 -7.74648 z" stroke-linecap="round" />
</g>
		<g transform="matrix(0.55 0 0 0.55 -41.09 18.76)" id="3lHxp3EdBMaQiR6vMyoWG"  >
<path style="stroke: rgb(255,243,18); stroke-width: 0; stroke-dasharray: none; stroke-linecap: butt; stroke-dashoffset: 0; stroke-linejoin: miter; stroke-miterlimit: 4; fill: rgb(255,255,255); fill-rule: nonzero; opacity: 1;" vector-effect="non-scaling-stroke"  transform=" translate(0, 0)" d="M 0 -7.74648 C 4.27606 -7.74648 7.74648 -4.27606 7.74648 0 C 7.74648 4.27606 4.27606 7.74648 0 7.74648 C -4.27606 7.74648 -7.74648 4.27606 -7.74648 0 C -7.74648 -4.27606 -4.27606 -7.74648 0 -7.74648 z" stroke-linecap="round" />
</g>
</g>
</g>
<g transform="matrix(0.09 0 0 0.09 84.09 48.2)" id="hE2jadoxMTFcM4dIZCTcx"  >
<g style="" vector-effect="non-scaling-stroke"   >
		<g transform="matrix(1 0 0 1 0 0)" id="clj6fd4IQ7oEpqTx8dXmW"  >
<path style="stroke: rgb(255,243,18); stroke-width: 0; stroke-dasharray: none; stroke-linecap: butt; stroke-dashoffset: 0; stroke-linejoin: miter; stroke-miterlimit: 4; fill: rgb(232,174,207); fill-rule: nonzero; opacity: 1;" vector-effect="non-scaling-stroke"  transform=" translate(-58.1, -58.1)" d="M 58.09859 0 C 90.16901 0 116.19718 26.02817 116.19718 58.09859 C 116.19718 90.16901 90.16901 116.19718 58.09859 116.19718 C 26.028170000000003 116.19718 0 90.16901 0 58.09859 C 0 26.028170000000003 26.02817 0 58.09859 0 z" stroke-linecap="round" />
</g>
		<g transform="matrix(0.55 0 0 0.55 22.18 -4.25)" id="E-g-JvnQnFlZLqVFXUxhw"  >
<path style="stroke: rgb(255,243,18); stroke-width: 0; stroke-dasharray: none; stroke-linecap: butt; stroke-dashoffset: 0; stroke-linejoin: miter; stroke-miterlimit: 4; fill: rgb(255,255,255); fill-rule: nonzero; opacity: 1;" vector-effect="non-scaling-stroke"  transform=" translate(0, 0)" d="M 0 -7.74648 C 4.27606 -7.74648 7.74648 -4.27606 7.74648 0 C 7.74648 4.27606 4.27606 7.74648 0 7.74648 C -4.27606 7.74648 -7.74648 4.27606 -7.74648 0 C -7.74648 -4.27606 -4.27606 -7.74648 0 -7.74648 z" stroke-linecap="round" />
</g>
		<g transform="matrix(0.55 0 0 0.55 -36.83 -8.51)" id="O3Hxug9k8u_RioMwaDv-g"  >
<path style="stroke: rgb(255,243,18); stroke-width: 0; stroke-dasharray: none; stroke-linecap: butt; stroke-dashoffset: 0; stroke-linejoin: miter; stroke-miterlimit: 4; fill: rgb(255,255,255); fill-rule: nonzero; opacity: 1;" vector-effect="non-scaling-stroke"  transform=" translate(0, 0)" d="M 0 -7.74648 C 4.27606 -7.74648 7.74648 -4.27606 7.74648 0 C 7.74648 4.27606 4.27606 7.74648 0 7.74648 C -4.27606 7.74648 -7.74648 4.27606 -7.74648 0 C -7.74648 -4.27606 -4.27606 -7.74648 0 -7.74648 z" stroke-linecap="round" />
</g>
		<g transform="matrix(0.55 0 0 0.55 10.18 34.75)" id="u396KvWPQofX_jucVvh-v"  >
<path style="stroke: rgb(255,243,18); stroke-width: 0; stroke-dasharray: none; stroke-linecap: butt; stroke-dashoffset: 0; stroke-linejoin: miter; stroke-miterlimit: 4; fill: rgb(255,255,255); fill-rule: nonzero; opacity: 1;" vector-effect="non-scaling-stroke"  transform=" translate(0, 0)" d="M 0 -7.74648 C 4.27606 -7.74648 7.74648 -4.27606 7.74648 0 C 7.74648 4.27606 4.27606 7.74648 0 7.74648 C -4.27606 7.74648 -7.74648 4.27606 -7.74648 0 C -7.74648 -4.27606 -4.27606 -7.74648 0 -7.74648 z" stroke-linecap="round" />
</g>
		<g transform="matrix(0.55 0 0 0.55 0 -12.75)" id="XrD0HG-epVX9Vk9hC2JaS"  >
<path style="stroke: rgb(255,243,18); stroke-width: 0; stroke-dasharray: none; stroke-linecap: butt; stroke-dashoffset: 0; stroke-linejoin: miter; stroke-miterlimit: 4; fill: rgb(255,255,255); fill-rule: nonzero; opacity: 1;" vector-effect="non-scaling-stroke"  transform=" translate(0, 0)" d="M 0 -7.74648 C 4.27606 -7.74648 7.74648 -4.27606 7.74648 0 C 7.74648 4.27606 4.27606 7.74648 0 7.74648 C -4.27606 7.74648 -7.74648 4.27606 -7.74648 0 C -7.74648 -4.27606 -4.27606 -7.74648 0 -7.74648 z" stroke-linecap="round" />
</g>
		<g transform="matrix(1 0 0 1 22.18 -36.29)" id="hBmBCAZzZ8ydjUCs28xyy"  >
<path style="stroke: rgb(255,243,18); stroke-width: 0; stroke-dasharray: none; stroke-linecap: butt; stroke-dashoffset: 0; stroke-linejoin: miter; stroke-miterlimit: 4; fill: rgb(255,255,255); fill-rule: nonzero; opacity: 1;" vector-effect="non-scaling-stroke"  transform=" translate(-7.75, -7.75)" d="M 7.74648 0 C 12.02254 0 15.49296 3.47042 15.49296 7.74648 C 15.49296 12.02254 12.02254 15.49296 7.74648 15.49296 C 3.47042 15.49296 0 12.02254 0 7.74648 C 0 3.47042 3.47042 0 7.74648 0 z" stroke-linecap="round" />
</g>
		<g transform="matrix(1 0 0 1 -17.82 11.01)" id="Uk9_WERx0qod0prR2ukmP"  >
<path style="stroke: rgb(255,243,18); stroke-width: 0; stroke-dasharray: none; stroke-linecap: butt; stroke-dashoffset: 0; stroke-linejoin: miter; stroke-miterlimit: 4; fill: rgb(255,255,255); fill-rule: nonzero; opacity: 1;" vector-effect="non-scaling-stroke"  transform=" translate(-7.75, -7.75)" d="M 7.74648 0 C 12.02254 0 15.49296 3.47042 15.49296 7.74648 C 15.49296 12.02254 12.02254 15.49296 7.74648 15.49296 C 3.47042 15.49296 0 12.02254 0 7.74648 C 0 3.47042 3.47042 0 7.74648 0 z" stroke-linecap="round" />
</g>
		<g transform="matrix(1 0 0 1 -17.82 -28.54)" id="harkZZcTW4mPoIAz_dk_g"  >
<path style="stroke: rgb(255,243,18); stroke-width: 0; stroke-dasharray: none; stroke-linecap: butt; stroke-dashoffset: 0; stroke-linejoin: miter; stroke-miterlimit: 4; fill: rgb(255,255,255); fill-rule: nonzero; opacity: 1;" vector-effect="non-scaling-stroke"  transform=" translate(-7.75, -7.75)" d="M 7.74648 0 C 12.02254 0 15.49296 3.47042 15.49296 7.74648 C 15.49296 12.02254 12.02254 15.49296 7.74648 15.49296 C 3.47042 15.49296 0 12.02254 0 7.74648 C 0 3.47042 3.47042 0 7.74648 0 z" stroke-linecap="round" />
</g>
		<g transform="matrix(0.55 0 0 0.55 43.87 -12.77)" id="WXEfSQTl4aPXNjoOHFLor"  >
<path style="stroke: rgb(255,243,18); stroke-width: 0; stroke-dasharray: none; stroke-linecap: butt; stroke-dashoffset: 0; stroke-linejoin: miter; stroke-miterlimit: 4; fill: rgb(255,255,255); fill-rule: nonzero; opacity: 1;" vector-effect="non-scaling-stroke"  transform=" translate(0, 0)" d="M 0 -7.74648 C 4.27606 -7.74648 7.74648 -4.27606 7.74648 0 C 7.74648 4.27606 4.27606 7.74648 0 7.74648 C -4.27606 7.74648 -7.74648 4.27606 -7.74648 0 C -7.74648 -4.27606 -4.27606 -7.74648 0 -7.74648 z" stroke-linecap="round" />
</g>
		<g transform="matrix(1.79 0 0 1.79 34.27 18.76)" id="8t9HnQN2SmrWlfVd-vfwO"  >
<path style="stroke: rgb(255,243,18); stroke-width: 0; stroke-dasharray: none; stroke-linecap: butt; stroke-dashoffset: 0; stroke-linejoin: miter; stroke-miterlimit: 4; fill: rgb(255,255,255); fill-rule: nonzero; opacity: 1;" vector-effect="non-scaling-stroke"  transform=" translate(0, 0)" d="M 0 -7.74648 C 4.27606 -7.74648 7.74648 -4.27606 7.74648 0 C 7.74648 4.27606 4.27606 7.74648 0 7.74648 C -4.27606 7.74648 -7.74648 4.27606 -7.74648 0 C -7.74648 -4.27606 -4.27606 -7.74648 0 -7.74648 z" stroke-linecap="round" />
</g>
		<g transform="matrix(1.11 0 0 1.11 -18.66 39.01)" id="CHtAZ_cYRVFf6P10pSxla"  >
<path style="stroke: rgb(255,243,18); stroke-width: 0; stroke-dasharray: none; stroke-linecap: butt; stroke-dashoffset: 0; stroke-linejoin: miter; stroke-miterlimit: 4; fill: rgb(255,255,255); fill-rule: nonzero; opacity: 1;" vector-effect="non-scaling-stroke"  transform=" translate(0, 0)" d="M 0 -7.74648 C 4.27606 -7.74648 7.74648 -4.27606 7.74648 0 C 7.74648 4.27606 4.27606 7.74648 0 7.74648 C -4.27606 7.74648 -7.74648 4.27606 -7.74648 0 C -7.74648 -4.27606 -4.27606 -7.74648 0 -7.74648 z" stroke-linecap="round" />
</g>
		<g transform="matrix(0.55 0 0 0.55 -41.09 18.76)" id="m-UeaQ69fEDFK2OhPCBKT"  >
<path style="stroke: rgb(255,243,18); stroke-width: 0; stroke-dasharray: none; stroke-linecap: butt; stroke-dashoffset: 0; stroke-linejoin: miter; stroke-miterlimit: 4; fill: rgb(255,255,255); fill-rule: nonzero; opacity: 1;" vector-effect="non-scaling-stroke"  transform=" translate(0, 0)" d="M 0 -7.74648 C 4.27606 -7.74648 7.74648 -4.27606 7.74648 0 C 7.74648 4.27606 4.27606 7.74648 0 7.74648 C -4.27606 7.74648 -7.74648 4.27606 -7.74648 0 C -7.74648 -4.27606 -4.27606 -7.74648 0 -7.74648 z" stroke-linecap="round" />
</g>
</g>
</g>
<g transform="matrix(0.09 0 0 0.09 77.55 64.21)" id="5gKMlki4QPjk3LuuCjjXU"  >
<g style="" vector-effect="non-scaling-stroke"   >
		<g transform="matrix(1 0 0 1 0 0)" id="Se3LWtgTv9DP4L8Yx0a3A"  >
<path style="stroke: rgb(255,243,18); stroke-width: 0; stroke-dasharray: none; stroke-linecap: butt; stroke-dashoffset: 0; stroke-linejoin: miter; stroke-miterlimit: 4; fill: rgb(232,174,207); fill-rule: nonzero; opacity: 1;" vector-effect="non-scaling-stroke"  transform=" translate(-58.1, -58.1)" d="M 58.09859 0 C 90.16901 0 116.19718 26.02817 116.19718 58.09859 C 116.19718 90.16901 90.16901 116.19718 58.09859 116.19718 C 26.028170000000003 116.19718 0 90.16901 0 58.09859 C 0 26.028170000000003 26.02817 0 58.09859 0 z" stroke-linecap="round" />
</g>
		<g transform="matrix(0.55 0 0 0.55 22.18 -4.25)" id="TTFHivUx68RI9nCjbEdcz"  >
<path style="stroke: rgb(255,243,18); stroke-width: 0; stroke-dasharray: none; stroke-linecap: butt; stroke-dashoffset: 0; stroke-linejoin: miter; stroke-miterlimit: 4; fill: rgb(255,255,255); fill-rule: nonzero; opacity: 1;" vector-effect="non-scaling-stroke"  transform=" translate(0, 0)" d="M 0 -7.74648 C 4.27606 -7.74648 7.74648 -4.27606 7.74648 0 C 7.74648 4.27606 4.27606 7.74648 0 7.74648 C -4.27606 7.74648 -7.74648 4.27606 -7.74648 0 C -7.74648 -4.27606 -4.27606 -7.74648 0 -7.74648 z" stroke-linecap="round" />
</g>
		<g transform="matrix(0.55 0 0 0.55 -36.83 -8.51)" id="_izjXkmQHGG4VwOZascVb"  >
<path style="stroke: rgb(255,243,18); stroke-width: 0; stroke-dasharray: none; stroke-linecap: butt; stroke-dashoffset: 0; stroke-linejoin: miter; stroke-miterlimit: 4; fill: rgb(255,255,255); fill-rule: nonzero; opacity: 1;" vector-effect="non-scaling-stroke"  transform=" translate(0, 0)" d="M 0 -7.74648 C 4.27606 -7.74648 7.74648 -4.27606 7.74648 0 C 7.74648 4.27606 4.27606 7.74648 0 7.74648 C -4.27606 7.74648 -7.74648 4.27606 -7.74648 0 C -7.74648 -4.27606 -4.27606 -7.74648 0 -7.74648 z" stroke-linecap="round" />
</g>
		<g transform="matrix(0.55 0 0 0.55 10.18 34.75)" id="eY3HKWs6mwkLsrTst-dqp"  >
<path style="stroke: rgb(255,243,18); stroke-width: 0; stroke-dasharray: none; stroke-linecap: butt; stroke-dashoffset: 0; stroke-linejoin: miter; stroke-miterlimit: 4; fill: rgb(255,255,255); fill-rule: nonzero; opacity: 1;" vector-effect="non-scaling-stroke"  transform=" translate(0, 0)" d="M 0 -7.74648 C 4.27606 -7.74648 7.74648 -4.27606 7.74648 0 C 7.74648 4.27606 4.27606 7.74648 0 7.74648 C -4.27606 7.74648 -7.74648 4.27606 -7.74648 0 C -7.74648 -4.27606 -4.27606 -7.74648 0 -7.74648 z" stroke-linecap="round" />
</g>
		<g transform="matrix(0.55 0 0 0.55 0 -12.75)" id="fdvwcrPnjDAZhb-rOPuu9"  >
<path style="stroke: rgb(255,243,18); stroke-width: 0; stroke-dasharray: none; stroke-linecap: butt; stroke-dashoffset: 0; stroke-linejoin: miter; stroke-miterlimit: 4; fill: rgb(255,255,255); fill-rule: nonzero; opacity: 1;" vector-effect="non-scaling-stroke"  transform=" translate(0, 0)" d="M 0 -7.74648 C 4.27606 -7.74648 7.74648 -4.27606 7.74648 0 C 7.74648 4.27606 4.27606 7.74648 0 7.74648 C -4.27606 7.74648 -7.74648 4.27606 -7.74648 0 C -7.74648 -4.27606 -4.27606 -7.74648 0 -7.74648 z" stroke-linecap="round" />
</g>
		<g transform="matrix(1 0 0 1 22.18 -36.29)" id="71JLiblEumP0EBoTHtJbM"  >
<path style="stroke: rgb(255,243,18); stroke-width: 0; stroke-dasharray: none; stroke-linecap: butt; stroke-dashoffset: 0; stroke-linejoin: miter; stroke-miterlimit: 4; fill: rgb(255,255,255); fill-rule: nonzero; opacity: 1;" vector-effect="non-scaling-stroke"  transform=" translate(-7.75, -7.75)" d="M 7.74648 0 C 12.02254 0 15.49296 3.47042 15.49296 7.74648 C 15.49296 12.02254 12.02254 15.49296 7.74648 15.49296 C 3.47042 15.49296 0 12.02254 0 7.74648 C 0 3.47042 3.47042 0 7.74648 0 z" stroke-linecap="round" />
</g>
		<g transform="matrix(1 0 0 1 -17.82 11.01)" id="kLDiMN8f_xHB37GZdVE7I"  >
<path style="stroke: rgb(255,243,18); stroke-width: 0; stroke-dasharray: none; stroke-linecap: butt; stroke-dashoffset: 0; stroke-linejoin: miter; stroke-miterlimit: 4; fill: rgb(255,255,255); fill-rule: nonzero; opacity: 1;" vector-effect="non-scaling-stroke"  transform=" translate(-7.75, -7.75)" d="M 7.74648 0 C 12.02254 0 15.49296 3.47042 15.49296 7.74648 C 15.49296 12.02254 12.02254 15.49296 7.74648 15.49296 C 3.47042 15.49296 0 12.02254 0 7.74648 C 0 3.47042 3.47042 0 7.74648 0 z" stroke-linecap="round" />
</g>
		<g transform="matrix(1 0 0 1 -17.82 -28.54)" id="ORqGZHxw3u1_ud2ax9loG"  >
<path style="stroke: rgb(255,243,18); stroke-width: 0; stroke-dasharray: none; stroke-linecap: butt; stroke-dashoffset: 0; stroke-linejoin: miter; stroke-miterlimit: 4; fill: rgb(255,255,255); fill-rule: nonzero; opacity: 1;" vector-effect="non-scaling-stroke"  transform=" translate(-7.75, -7.75)" d="M 7.74648 0 C 12.02254 0 15.49296 3.47042 15.49296 7.74648 C 15.49296 12.02254 12.02254 15.49296 7.74648 15.49296 C 3.47042 15.49296 0 12.02254 0 7.74648 C 0 3.47042 3.47042 0 7.74648 0 z" stroke-linecap="round" />
</g>
		<g transform="matrix(0.55 0 0 0.55 43.87 -12.77)" id="bp1-bQo7AJxZ6bagh-DoG"  >
<path style="stroke: rgb(255,243,18); stroke-width: 0; stroke-dasharray: none; stroke-linecap: butt; stroke-dashoffset: 0; stroke-linejoin: miter; stroke-miterlimit: 4; fill: rgb(255,255,255); fill-rule: nonzero; opacity: 1;" vector-effect="non-scaling-stroke"  transform=" translate(0, 0)" d="M 0 -7.74648 C 4.27606 -7.74648 7.74648 -4.27606 7.74648 0 C 7.74648 4.27606 4.27606 7.74648 0 7.74648 C -4.27606 7.74648 -7.74648 4.27606 -7.74648 0 C -7.74648 -4.27606 -4.27606 -7.74648 0 -7.74648 z" stroke-linecap="round" />
</g>
		<g transform="matrix(1.79 0 0 1.79 34.27 18.76)" id="Hx852fbz5EhUMZqmRu5m0"  >
<path style="stroke: rgb(255,243,18); stroke-width: 0; stroke-dasharray: none; stroke-linecap: butt; stroke-dashoffset: 0; stroke-linejoin: miter; stroke-miterlimit: 4; fill: rgb(255,255,255); fill-rule: nonzero; opacity: 1;" vector-effect="non-scaling-stroke"  transform=" translate(0, 0)" d="M 0 -7.74648 C 4.27606 -7.74648 7.74648 -4.27606 7.74648 0 C 7.74648 4.27606 4.27606 7.74648 0 7.74648 C -4.27606 7.74648 -7.74648 4.27606 -7.74648 0 C -7.74648 -4.27606 -4.27606 -7.74648 0 -7.74648 z" stroke-linecap="round" />
</g>
		<g transform="matrix(1.11 0 0 1.11 -18.66 39.01)" id="pjFoic7bdm0eWLja1LbZG"  >
<path style="stroke: rgb(255,243,18); stroke-width: 0; stroke-dasharray: none; stroke-linecap: butt; stroke-dashoffset: 0; stroke-linejoin: miter; stroke-miterlimit: 4; fill: rgb(255,255,255); fill-rule: nonzero; opacity: 1;" vector-effect="non-scaling-stroke"  transform=" translate(0, 0)" d="M 0 -7.74648 C 4.27606 -7.74648 7.74648 -4.27606 7.74648 0 C 7.74648 4.27606 4.27606 7.74648 0 7.74648 C -4.27606 7.74648 -7.74648 4.27606 -7.74648 0 C -7.74648 -4.27606 -4.27606 -7.74648 0 -7.74648 z" stroke-linecap="round" />
</g>
		<g transform="matrix(0.55 0 0 0.55 -41.09 18.76)" id="Z2DA06i2DKKZPtyjJDtkO"  >
<path style="stroke: rgb(255,243,18); stroke-width: 0; stroke-dasharray: none; stroke-linecap: butt; stroke-dashoffset: 0; stroke-linejoin: miter; stroke-miterlimit: 4; fill: rgb(255,255,255); fill-rule: nonzero; opacity: 1;" vector-effect="non-scaling-stroke"  transform=" translate(0, 0)" d="M 0 -7.74648 C 4.27606 -7.74648 7.74648 -4.27606 7.74648 0 C 7.74648 4.27606 4.27606 7.74648 0 7.74648 C -4.27606 7.74648 -7.74648 4.27606 -7.74648 0 C -7.74648 -4.27606 -4.27606 -7.74648 0 -7.74648 z" stroke-linecap="round" />
</g>
</g>
</g>
<g transform="matrix(0.08 0 0 0.08 90.62 69.61)" id="h5f28EumwgJAC74xKa-ST"  >
<g style="" vector-effect="non-scaling-stroke"   >
		<g transform="matrix(1 0 0 1 0 0)" id="x0BpQzggTyvyKZgyW6tf6"  >
<path style="stroke: rgb(255,243,18); stroke-width: 0; stroke-dasharray: none; stroke-linecap: butt; stroke-dashoffset: 0; stroke-linejoin: miter; stroke-miterlimit: 4; fill: rgb(232,174,207); fill-rule: nonzero; opacity: 1;" vector-effect="non-scaling-stroke"  transform=" translate(-58.1, -58.1)" d="M 58.09859 0 C 90.16901 0 116.19718 26.02817 116.19718 58.09859 C 116.19718 90.16901 90.16901 116.19718 58.09859 116.19718 C 26.028170000000003 116.19718 0 90.16901 0 58.09859 C 0 26.028170000000003 26.02817 0 58.09859 0 z" stroke-linecap="round" />
</g>
		<g transform="matrix(0.55 0 0 0.55 22.18 -4.25)" id="f6n-Zlh5HG2CxVKD2-VB8"  >
<path style="stroke: rgb(255,243,18); stroke-width: 0; stroke-dasharray: none; stroke-linecap: butt; stroke-dashoffset: 0; stroke-linejoin: miter; stroke-miterlimit: 4; fill: rgb(255,255,255); fill-rule: nonzero; opacity: 1;" vector-effect="non-scaling-stroke"  transform=" translate(0, 0)" d="M 0 -7.74648 C 4.27606 -7.74648 7.74648 -4.27606 7.74648 0 C 7.74648 4.27606 4.27606 7.74648 0 7.74648 C -4.27606 7.74648 -7.74648 4.27606 -7.74648 0 C -7.74648 -4.27606 -4.27606 -7.74648 0 -7.74648 z" stroke-linecap="round" />
</g>
		<g transform="matrix(0.55 0 0 0.55 -36.83 -8.51)" id="GQ33mJZb6kB-vOR3B_pYI"  >
<path style="stroke: rgb(255,243,18); stroke-width: 0; stroke-dasharray: none; stroke-linecap: butt; stroke-dashoffset: 0; stroke-linejoin: miter; stroke-miterlimit: 4; fill: rgb(255,255,255); fill-rule: nonzero; opacity: 1;" vector-effect="non-scaling-stroke"  transform=" translate(0, 0)" d="M 0 -7.74648 C 4.27606 -7.74648 7.74648 -4.27606 7.74648 0 C 7.74648 4.27606 4.27606 7.74648 0 7.74648 C -4.27606 7.74648 -7.74648 4.27606 -7.74648 0 C -7.74648 -4.27606 -4.27606 -7.74648 0 -7.74648 z" stroke-linecap="round" />
</g>
		<g transform="matrix(0.55 0 0 0.55 10.18 34.75)" id="DOLX9Ft1GcZtHV-e3PPlr"  >
<path style="stroke: rgb(255,243,18); stroke-width: 0; stroke-dasharray: none; stroke-linecap: butt; stroke-dashoffset: 0; stroke-linejoin: miter; stroke-miterlimit: 4; fill: rgb(255,255,255); fill-rule: nonzero; opacity: 1;" vector-effect="non-scaling-stroke"  transform=" translate(0, 0)" d="M 0 -7.74648 C 4.27606 -7.74648 7.74648 -4.27606 7.74648 0 C 7.74648 4.27606 4.27606 7.74648 0 7.74648 C -4.27606 7.74648 -7.74648 4.27606 -7.74648 0 C -7.74648 -4.27606 -4.27606 -7.74648 0 -7.74648 z" stroke-linecap="round" />
</g>
		<g transform="matrix(0.55 0 0 0.55 0 -12.75)" id="7i9_dAMwCPBI1Ds1u1FJy"  >
<path style="stroke: rgb(255,243,18); stroke-width: 0; stroke-dasharray: none; stroke-linecap: butt; stroke-dashoffset: 0; stroke-linejoin: miter; stroke-miterlimit: 4; fill: rgb(255,255,255); fill-rule: nonzero; opacity: 1;" vector-effect="non-scaling-stroke"  transform=" translate(0, 0)" d="M 0 -7.74648 C 4.27606 -7.74648 7.74648 -4.27606 7.74648 0 C 7.74648 4.27606 4.27606 7.74648 0 7.74648 C -4.27606 7.74648 -7.74648 4.27606 -7.74648 0 C -7.74648 -4.27606 -4.27606 -7.74648 0 -7.74648 z" stroke-linecap="round" />
</g>
		<g transform="matrix(1 0 0 1 22.18 -36.29)" id="M4d9i5RZt6m6DjIXMTHqO"  >
<path style="stroke: rgb(255,243,18); stroke-width: 0; stroke-dasharray: none; stroke-linecap: butt; stroke-dashoffset: 0; stroke-linejoin: miter; stroke-miterlimit: 4; fill: rgb(255,255,255); fill-rule: nonzero; opacity: 1;" vector-effect="non-scaling-stroke"  transform=" translate(-7.75, -7.75)" d="M 7.74648 0 C 12.02254 0 15.49296 3.47042 15.49296 7.74648 C 15.49296 12.02254 12.02254 15.49296 7.74648 15.49296 C 3.47042 15.49296 0 12.02254 0 7.74648 C 0 3.47042 3.47042 0 7.74648 0 z" stroke-linecap="round" />
</g>
		<g transform="matrix(1 0 0 1 -17.82 11.01)" id="-a1y_KYJSHBz1AFutaqHa"  >
<path style="stroke: rgb(255,243,18); stroke-width: 0; stroke-dasharray: none; stroke-linecap: butt; stroke-dashoffset: 0; stroke-linejoin: miter; stroke-miterlimit: 4; fill: rgb(255,255,255); fill-rule: nonzero; opacity: 1;" vector-effect="non-scaling-stroke"  transform=" translate(-7.75, -7.75)" d="M 7.74648 0 C 12.02254 0 15.49296 3.47042 15.49296 7.74648 C 15.49296 12.02254 12.02254 15.49296 7.74648 15.49296 C 3.47042 15.49296 0 12.02254 0 7.74648 C 0 3.47042 3.47042 0 7.74648 0 z" stroke-linecap="round" />
</g>
		<g transform="matrix(1 0 0 1 -17.82 -28.54)" id="z4Asi1ORli7d3IoUZuWFr"  >
<path style="stroke: rgb(255,243,18); stroke-width: 0; stroke-dasharray: none; stroke-linecap: butt; stroke-dashoffset: 0; stroke-linejoin: miter; stroke-miterlimit: 4; fill: rgb(255,255,255); fill-rule: nonzero; opacity: 1;" vector-effect="non-scaling-stroke"  transform=" translate(-7.75, -7.75)" d="M 7.74648 0 C 12.02254 0 15.49296 3.47042 15.49296 7.74648 C 15.49296 12.02254 12.02254 15.49296 7.74648 15.49296 C 3.47042 15.49296 0 12.02254 0 7.74648 C 0 3.47042 3.47042 0 7.74648 0 z" stroke-linecap="round" />
</g>
		<g transform="matrix(0.55 0 0 0.55 43.87 -12.77)" id="LZZ7ETQzfc1nEdH6uHBXK"  >
<path style="stroke: rgb(255,243,18); stroke-width: 0; stroke-dasharray: none; stroke-linecap: butt; stroke-dashoffset: 0; stroke-linejoin: miter; stroke-miterlimit: 4; fill: rgb(255,255,255); fill-rule: nonzero; opacity: 1;" vector-effect="non-scaling-stroke"  transform=" translate(0, 0)" d="M 0 -7.74648 C 4.27606 -7.74648 7.74648 -4.27606 7.74648 0 C 7.74648 4.27606 4.27606 7.74648 0 7.74648 C -4.27606 7.74648 -7.74648 4.27606 -7.74648 0 C -7.74648 -4.27606 -4.27606 -7.74648 0 -7.74648 z" stroke-linecap="round" />
</g>
		<g transform="matrix(1.79 0 0 1.79 34.27 18.76)" id="soD3RHgeKX3t84dqoER4E"  >
<path style="stroke: rgb(255,243,18); stroke-width: 0; stroke-dasharray: none; stroke-linecap: butt; stroke-dashoffset: 0; stroke-linejoin: miter; stroke-miterlimit: 4; fill: rgb(255,255,255); fill-rule: nonzero; opacity: 1;" vector-effect="non-scaling-stroke"  transform=" translate(0, 0)" d="M 0 -7.74648 C 4.27606 -7.74648 7.74648 -4.27606 7.74648 0 C 7.74648 4.27606 4.27606 7.74648 0 7.74648 C -4.27606 7.74648 -7.74648 4.27606 -7.74648 0 C -7.74648 -4.27606 -4.27606 -7.74648 0 -7.74648 z" stroke-linecap="round" />
</g>
		<g transform="matrix(1.11 0 0 1.11 -18.66 39.01)" id="fKJKeXpHV79dFGpkcCVA_"  >
<path style="stroke: rgb(255,243,18); stroke-width: 0; stroke-dasharray: none; stroke-linecap: butt; stroke-dashoffset: 0; stroke-linejoin: miter; stroke-miterlimit: 4; fill: rgb(255,255,255); fill-rule: nonzero; opacity: 1;" vector-effect="non-scaling-stroke"  transform=" translate(0, 0)" d="M 0 -7.74648 C 4.27606 -7.74648 7.74648 -4.27606 7.74648 0 C 7.74648 4.27606 4.27606 7.74648 0 7.74648 C -4.27606 7.74648 -7.74648 4.27606 -7.74648 0 C -7.74648 -4.27606 -4.27606 -7.74648 0 -7.74648 z" stroke-linecap="round" />
</g>
		<g transform="matrix(0.55 0 0 0.55 -41.09 18.76)" id="1LQdQmR7__L7nEzuC7372"  >
<path style="stroke: rgb(255,243,18); stroke-width: 0; stroke-dasharray: none; stroke-linecap: butt; stroke-dashoffset: 0; stroke-linejoin: miter; stroke-miterlimit: 4; fill: rgb(255,255,255); fill-rule: nonzero; opacity: 1;" vector-effect="non-scaling-stroke"  transform=" translate(0, 0)" d="M 0 -7.74648 C 4.27606 -7.74648 7.74648 -4.27606 7.74648 0 C 7.74648 4.27606 4.27606 7.74648 0 7.74648 C -4.27606 7.74648 -7.74648 4.27606 -7.74648 0 C -7.74648 -4.27606 -4.27606 -7.74648 0 -7.74648 z" stroke-linecap="round" />
</g>
</g>
</g>
<g transform="matrix(0.22 0 0 0.22 113.26 34.28)" id="4onikn8iPf1sjCWkvTU15"  >
<g style="" vector-effect="non-scaling-stroke"   >
		<g transform="matrix(1.22 0 0 1.22 0 0)" id="c2r2r-3kqrt34YptjeFgW"  >
<path style="stroke: rgb(255,243,18); stroke-width: 0; stroke-dasharray: none; stroke-linecap: butt; stroke-dashoffset: 0; stroke-linejoin: miter; stroke-miterlimit: 4; fill: rgb(207,181,200); fill-rule: nonzero; opacity: 1;" vector-effect="non-scaling-stroke"  transform=" translate(0, 0)" d="M 0 -31.69014 C 17.49296 -31.69014 31.69014 -17.49296 31.69014 0 C 31.69014 17.49296 17.49296 31.69014 0 31.69014 C -17.49296 31.69014 -31.69014 17.49296 -31.69014 0 C -31.69014 -17.49296 -17.49296 -31.69014 0 -31.69014 z" stroke-linecap="round" />
</g>
		<g transform="matrix(1.15 0 0 1.15 0 0)" id="Ra8I5Xmv8bkG8Mhn97V7n"  >
<path style="stroke: rgb(217,200,19); stroke-width: 0; stroke-dasharray: none; stroke-linecap: butt; stroke-dashoffset: 0; stroke-linejoin: miter; stroke-miterlimit: 4; fill: rgb(255,215,0); fill-rule: nonzero; opacity: 1;" vector-effect="non-scaling-stroke"  transform=" translate(0, 0)" d="M 0 -26.05634 C 14.3831 -26.05634 26.05634 -14.383099999999999 26.05634 0 C 26.05634 14.3831 14.383099999999999 26.05634 0 26.05634 C -14.3831 26.05634 -26.05634 14.383099999999999 -26.05634 0 C -26.05634 -14.3831 -14.383099999999999 -26.05634 0 -26.05634 z" stroke-linecap="round" />
</g>
</g>
</g>
<g transform="matrix(0.14 0 0 0.14 106.3 77.33)" id="QpgTpgp9VKLzY4_8LVwka"  >
<g style="" vector-effect="non-scaling-stroke"   >
		<g transform="matrix(1.22 0 0 1.22 0 0)" id="Sj3dOfMhzExhReQjur-9Q"  >
<path style="stroke: rgb(255,243,18); stroke-width: 0; stroke-dasharray: none; stroke-linecap: butt; stroke-dashoffset: 0; stroke-linejoin: miter; stroke-miterlimit: 4; fill: rgb(207,181,200); fill-rule: nonzero; opacity: 1;" vector-effect="non-scaling-stroke"  transform=" translate(0, 0)" d="M 0 -31.69014 C 17.49296 -31.69014 31.69014 -17.49296 31.69014 0 C 31.69014 17.49296 17.49296 31.69014 0 31.69014 C -17.49296 31.69014 -31.69014 17.49296 -31.69014 0 C -31.69014 -17.49296 -17.49296 -31.69014 0 -31.69014 z" stroke-linecap="round" />
</g>
		<g transform="matrix(1.15 0 0 1.15 0 0)" id="OU2_eC4N2_826lijjIYnb"  >
<path style="stroke: rgb(217,200,19); stroke-width: 0; stroke-dasharray: none; stroke-linecap: butt; stroke-dashoffset: 0; stroke-linejoin: miter; stroke-miterlimit: 4; fill: rgb(255,215,0); fill-rule: nonzero; opacity: 1;" vector-effect="non-scaling-stroke"  transform=" translate(0, 0)" d="M 0 -26.05634 C 14.3831 -26.05634 26.05634 -14.383099999999999 26.05634 0 C 26.05634 14.3831 14.383099999999999 26.05634 0 26.05634 C -14.3831 26.05634 -26.05634 14.383099999999999 -26.05634 0 C -26.05634 -14.3831 -14.383099999999999 -26.05634 0 -26.05634 z" stroke-linecap="round" />
</g>
</g>
</g>
<g transform="matrix(0.16 0 0 0.16 121.18 63.97)" id="2G0osvfR8RYj5mgf2ZwCs"  >
<g style="" vector-effect="non-scaling-stroke"   >
		<g transform="matrix(1.22 0 0 1.22 0 0)" id="jNrixv7HcSgSJeKFwB3m1"  >
<path style="stroke: rgb(255,243,18); stroke-width: 0; stroke-dasharray: none; stroke-linecap: butt; stroke-dashoffset: 0; stroke-linejoin: miter; stroke-miterlimit: 4; fill: rgb(207,181,200); fill-rule: nonzero; opacity: 1;" vector-effect="non-scaling-stroke"  transform=" translate(0, 0)" d="M 0 -31.69014 C 17.49296 -31.69014 31.69014 -17.49296 31.69014 0 C 31.69014 17.49296 17.49296 31.69014 0 31.69014 C -17.49296 31.69014 -31.69014 17.49296 -31.69014 0 C -31.69014 -17.49296 -17.49296 -31.69014 0 -31.69014 z" stroke-linecap="round" />
</g>
		<g transform="matrix(1.15 0 0 1.15 0 0)" id="CAQt4bARnSffW2eKw6iZX"  >
<path style="stroke: rgb(217,200,19); stroke-width: 0; stroke-dasharray: none; stroke-linecap: butt; stroke-dashoffset: 0; stroke-linejoin: miter; stroke-miterlimit: 4; fill: rgb(255,215,0); fill-rule: nonzero; opacity: 1;" vector-effect="non-scaling-stroke"  transform=" translate(0, 0)" d="M 0 -26.05634 C 14.3831 -26.05634 26.05634 -14.383099999999999 26.05634 0 C 26.05634 14.3831 14.383099999999999 26.05634 0 26.05634 C -14.3831 26.05634 -26.05634 14.383099999999999 -26.05634 0 C -26.05634 -14.3831 -14.383099999999999 -26.05634 0 -26.05634 z" stroke-linecap="round" />
</g>
</g>
</g>
<g transform="matrix(0.19 0 0 0.19 133.37 44.59)" id="3of4Y1Z7UjwV1V-iQzUK-"  >
<g style="" vector-effect="non-scaling-stroke"   >
		<g transform="matrix(1.22 0 0 1.22 0 0)" id="n_posSdxiW8XeLeboExHP"  >
<path style="stroke: rgb(255,243,18); stroke-width: 0; stroke-dasharray: none; stroke-linecap: butt; stroke-dashoffset: 0; stroke-linejoin: miter; stroke-miterlimit: 4; fill: rgb(207,181,200); fill-rule: nonzero; opacity: 1;" vector-effect="non-scaling-stroke"  transform=" translate(0, 0)" d="M 0 -31.69014 C 17.49296 -31.69014 31.69014 -17.49296 31.69014 0 C 31.69014 17.49296 17.49296 31.69014 0 31.69014 C -17.49296 31.69014 -31.69014 17.49296 -31.69014 0 C -31.69014 -17.49296 -17.49296 -31.69014 0 -31.69014 z" stroke-linecap="round" />
</g>
		<g transform="matrix(1.15 0 0 1.15 0 0)" id="TnWyemVvMUM4dZFYx105N"  >
<path style="stroke: rgb(217,200,19); stroke-width: 0; stroke-dasharray: none; stroke-linecap: butt; stroke-dashoffset: 0; stroke-linejoin: miter; stroke-miterlimit: 4; fill: rgb(255,215,0); fill-rule: nonzero; opacity: 1;" vector-effect="non-scaling-stroke"  transform=" translate(0, 0)" d="M 0 -26.05634 C 14.3831 -26.05634 26.05634 -14.383099999999999 26.05634 0 C 26.05634 14.3831 14.383099999999999 26.05634 0 26.05634 C -14.3831 26.05634 -26.05634 14.383099999999999 -26.05634 0 C -26.05634 -14.3831 -14.383099999999999 -26.05634 0 -26.05634 z" stroke-linecap="round" />
</g>
</g>
</g>
<g transform="matrix(0.08 0 0 0.08 109.45 63.97)" id="IeDdrcFm29iUZ4vB5PDAP"  >
<g style="" vector-effect="non-scaling-stroke"   >
		<g transform="matrix(1.22 0 0 1.22 0 0)" id="U6nK9SpCE1rDqrnopbWxq"  >
<path style="stroke: rgb(255,243,18); stroke-width: 0; stroke-dasharray: none; stroke-linecap: butt; stroke-dashoffset: 0; stroke-linejoin: miter; stroke-miterlimit: 4; fill: rgb(207,181,200); fill-rule: nonzero; opacity: 1;" vector-effect="non-scaling-stroke"  transform=" translate(0, 0)" d="M 0 -31.69014 C 17.49296 -31.69014 31.69014 -17.49296 31.69014 0 C 31.69014 17.49296 17.49296 31.69014 0 31.69014 C -17.49296 31.69014 -31.69014 17.49296 -31.69014 0 C -31.69014 -17.49296 -17.49296 -31.69014 0 -31.69014 z" stroke-linecap="round" />
</g>
		<g transform="matrix(1.15 0 0 1.15 0 0)" id="ZRiAZBxKc6PmdC3rMR6iW"  >
<path style="stroke: rgb(217,200,19); stroke-width: 0; stroke-dasharray: none; stroke-linecap: butt; stroke-dashoffset: 0; stroke-linejoin: miter; stroke-miterlimit: 4; fill: rgb(255,215,0); fill-rule: nonzero; opacity: 1;" vector-effect="non-scaling-stroke"  transform=" translate(0, 0)" d="M 0 -26.05634 C 14.3831 -26.05634 26.05634 -14.383099999999999 26.05634 0 C 26.05634 14.3831 14.383099999999999 26.05634 0 26.05634 C -14.3831 26.05634 -26.05634 14.383099999999999 -26.05634 0 C -26.05634 -14.3831 -14.383099999999999 -26.05634 0 -26.05634 z" stroke-linecap="round" />
</g>
</g>
</g>
<g transform="matrix(0.07 0 0 0.07 106.3 45.13)" id="TVALwpqJMw7ztz1aVYRuW"  >
<g style="" vector-effect="non-scaling-stroke"   >
		<g transform="matrix(1.22 0 0 1.22 0 0)" id="rRx628ald8t5qRnM4QnK-"  >
<path style="stroke: rgb(255,243,18); stroke-width: 0; stroke-dasharray: none; stroke-linecap: butt; stroke-dashoffset: 0; stroke-linejoin: miter; stroke-miterlimit: 4; fill: rgb(207,181,200); fill-rule: nonzero; opacity: 1;" vector-effect="non-scaling-stroke"  transform=" translate(0, 0)" d="M 0 -31.69014 C 17.49296 -31.69014 31.69014 -17.49296 31.69014 0 C 31.69014 17.49296 17.49296 31.69014 0 31.69014 C -17.49296 31.69014 -31.69014 17.49296 -31.69014 0 C -31.69014 -17.49296 -17.49296 -31.69014 0 -31.69014 z" stroke-linecap="round" />
</g>
		<g transform="matrix(1.15 0 0 1.15 0 0)" id="7LRAgqxvXavYQFcMSME-C"  >
<path style="stroke: rgb(217,200,19); stroke-width: 0; stroke-dasharray: none; stroke-linecap: butt; stroke-dashoffset: 0; stroke-linejoin: miter; stroke-miterlimit: 4; fill: rgb(255,215,0); fill-rule: nonzero; opacity: 1;" vector-effect="non-scaling-stroke"  transform=" translate(0, 0)" d="M 0 -26.05634 C 14.3831 -26.05634 26.05634 -14.383099999999999 26.05634 0 C 26.05634 14.3831 14.383099999999999 26.05634 0 26.05634 C -14.3831 26.05634 -26.05634 14.383099999999999 -26.05634 0 C -26.05634 -14.3831 -14.383099999999999 -26.05634 0 -26.05634 z" stroke-linecap="round" />
</g>
</g>
</g>
<g transform="matrix(0.07 0 0 0.07 125.64 52.59)" id="lV3z2RRoOPOI7cKay3zxF"  >
<g style="" vector-effect="non-scaling-stroke"   >
		<g transform="matrix(1.22 0 0 1.22 0 0)" id="_C7qFWsAe9sYEmYuRjZwj"  >
<path style="stroke: rgb(255,243,18); stroke-width: 0; stroke-dasharray: none; stroke-linecap: butt; stroke-dashoffset: 0; stroke-linejoin: miter; stroke-miterlimit: 4; fill: rgb(207,181,200); fill-rule: nonzero; opacity: 1;" vector-effect="non-scaling-stroke"  transform=" translate(0, 0)" d="M 0 -31.69014 C 17.49296 -31.69014 31.69014 -17.49296 31.69014 0 C 31.69014 17.49296 17.49296 31.69014 0 31.69014 C -17.49296 31.69014 -31.69014 17.49296 -31.69014 0 C -31.69014 -17.49296 -17.49296 -31.69014 0 -31.69014 z" stroke-linecap="round" />
</g>
		<g transform="matrix(1.15 0 0 1.15 0 0)" id="4fQ68hepmh8rihH1ICpUU"  >
<path style="stroke: rgb(217,200,19); stroke-width: 0; stroke-dasharray: none; stroke-linecap: butt; stroke-dashoffset: 0; stroke-linejoin: miter; stroke-miterlimit: 4; fill: rgb(255,215,0); fill-rule: nonzero; opacity: 1;" vector-effect="non-scaling-stroke"  transform=" translate(0, 0)" d="M 0 -26.05634 C 14.3831 -26.05634 26.05634 -14.383099999999999 26.05634 0 C 26.05634 14.3831 14.383099999999999 26.05634 0 26.05634 C -14.3831 26.05634 -26.05634 14.383099999999999 -26.05634 0 C -26.05634 -14.3831 -14.383099999999999 -26.05634 0 -26.05634 z" stroke-linecap="round" />
</g>
</g>
</g>
<g transform="matrix(0.13 0 0 0.13 113.26 53.62)" id="1VpvT1BPXAPujK-mAbXnQ"  >
<g style="" vector-effect="non-scaling-stroke"   >
		<g transform="matrix(1.22 0 0 1.22 0 0)" id="UgZ7dHbp1aCWmJ3lcgHeK"  >
<path style="stroke: rgb(255,243,18); stroke-width: 0; stroke-dasharray: none; stroke-linecap: butt; stroke-dashoffset: 0; stroke-linejoin: miter; stroke-miterlimit: 4; fill: rgb(207,181,200); fill-rule: nonzero; opacity: 1;" vector-effect="non-scaling-stroke"  transform=" translate(0, 0)" d="M 0 -31.69014 C 17.49296 -31.69014 31.69014 -17.49296 31.69014 0 C 31.69014 17.49296 17.49296 31.69014 0 31.69014 C -17.49296 31.69014 -31.69014 17.49296 -31.69014 0 C -31.69014 -17.49296 -17.49296 -31.69014 0 -31.69014 z" stroke-linecap="round" />
</g>
		<g transform="matrix(1.15 0 0 1.15 0 0)" id="WmeATUDgi3pJyk1XUEi3l"  >
<path style="stroke: rgb(217,200,19); stroke-width: 0; stroke-dasharray: none; stroke-linecap: butt; stroke-dashoffset: 0; stroke-linejoin: miter; stroke-miterlimit: 4; fill: rgb(255,215,0); fill-rule: nonzero; opacity: 1;" vector-effect="non-scaling-stroke"  transform=" translate(0, 0)" d="M 0 -26.05634 C 14.3831 -26.05634 26.05634 -14.383099999999999 26.05634 0 C 26.05634 14.3831 14.383099999999999 26.05634 0 26.05634 C -14.3831 26.05634 -26.05634 14.383099999999999 -26.05634 0 C -26.05634 -14.3831 -14.383099999999999 -26.05634 0 -26.05634 z" stroke-linecap="round" />
</g>
</g>
</g>
<g transform="matrix(0 0.5 -0.54 0 159.47 89.02)" id="cmBrByQ6ZJ3dbaVrQQeQe"  >
<path style="stroke: rgb(255,243,18); stroke-width: 0; stroke-dasharray: none; stroke-linecap: butt; stroke-dashoffset: 0; stroke-linejoin: miter; stroke-miterlimit: 4; fill: rgb(36,170,55); fill-rule: nonzero; opacity: 1;" vector-effect="non-scaling-stroke"  transform=" translate(0, 0)" d="M -7.04365 -7.04365 L 7.04365 -7.04365 L 7.04365 7.04365 L -7.04365 7.04365 z" stroke-linecap="round" />
</g>
<g transform="matrix(0 0.5 -0.34 0 165.93 89.01)" id="4sTIUsHEoy2RGpIHUgGu4"  >
<path style="stroke: rgb(255,243,18); stroke-width: 0; stroke-dasharray: none; stroke-linecap: butt; stroke-dashoffset: 0; stroke-linejoin: miter; stroke-miterlimit: 4; fill: rgb(36,170,55); fill-rule: nonzero; opacity: 1;" vector-effect="non-scaling-stroke"  transform=" translate(0, 0)" d="M 0 -13.88889 C 7.66667 -13.88889 13.88889 -7.66667 13.88889 0 C 13.88889 7.66667 7.66667 13.88889 0 13.88889 C -7.66667 13.88889 -13.88889 7.66667 -13.88889 0 C -13.88889 -7.66667 -7.66667 -13.88889 0 -13.88889 z" stroke-linecap="round" />
</g>
<g transform="matrix(-0.19 0.33 -0.35 -0.2 140.05 86.99)" id="2mb_BDkmhIO5MzAcxC_Xn"  >
<path style="stroke: rgb(255,243,18); stroke-width: 0; stroke-dasharray: none; stroke-linecap: butt; stroke-dashoffset: 0; stroke-linejoin: miter; stroke-miterlimit: 4; fill: rgb(36,170,55); fill-rule: nonzero; opacity: 1;" vector-effect="non-scaling-stroke"  transform=" translate(0, 0)" d="M -7.04365 -7.04365 L 7.04365 -7.04365 L 7.04365 7.04365 L -7.04365 7.04365 z" stroke-linecap="round" />
</g>
<g transform="matrix(-0.19 0.33 -0.23 -0.13 144.27 89.43)" id="ZGQtCV1Zy6uolhnDP3-NT"  >
<path style="stroke: rgb(255,243,18); stroke-width: 0; stroke-dasharray: none; stroke-linecap: butt; stroke-dashoffset: 0; stroke-linejoin: miter; stroke-miterlimit: 4; fill: rgb(36,170,55); fill-rule: nonzero; opacity: 1;" vector-effect="non-scaling-stroke"  transform=" translate(0, 0)" d="M 0 -13.88889 C 7.66667 -13.88889 13.88889 -7.66667 13.88889 0 C 13.88889 7.66667 7.66667 13.88889 0 13.88889 C -7.66667 13.88889 -13.88889 7.66667 -13.88889 0 C -13.88889 -7.66667 -7.66667 -13.88889 0 -13.88889 z" stroke-linecap="round" />
</g>
<g transform="matrix(0.26 -0.45 0.45 0.26 142.54 76.71)" id="pmtoMVazhMEM0KNXGATeg"  >
<path style="stroke: rgb(255,243,18); stroke-width: 0; stroke-dasharray: none; stroke-linecap: butt; stroke-dashoffset: 0; stroke-linejoin: miter; stroke-miterlimit: 4; fill: rgb(36,170,55); fill-rule: nonzero; opacity: 1;" vector-effect="non-scaling-stroke"  transform=" translate(0, 0)" d="M -7.04365 -7.04365 L 7.04365 -7.04365 L 7.04365 7.04365 L -7.04365 7.04365 z" stroke-linecap="round" />
</g>
<g transform="matrix(0.26 -0.45 0.29 0.17 136.99 73.49)" id="Pm0Gd6CNVe0zaXbTi2Rh_"  >
<path style="stroke: rgb(255,243,18); stroke-width: 0; stroke-dasharray: none; stroke-linecap: butt; stroke-dashoffset: 0; stroke-linejoin: miter; stroke-miterlimit: 4; fill: rgb(36,170,55); fill-rule: nonzero; opacity: 1;" vector-effect="non-scaling-stroke"  transform=" translate(0, 0)" d="M 0 -13.88889 C 7.66667 -13.88889 13.88889 -7.66667 13.88889 0 C 13.88889 7.66667 7.66667 13.88889 0 13.88889 C -7.66667 13.88889 -13.88889 7.66667 -13.88889 0 C -13.88889 -7.66667 -7.66667 -13.88889 0 -13.88889 z" stroke-linecap="round" />
</g>
<g transform="matrix(0.26 0 0 0.26 160.62 114.4)" id="Z7gOgi-SttNP5SJq6wzG4"  >
<g style="" vector-effect="non-scaling-stroke"   >
		<g transform="matrix(1.22 0 0 1.22 0 0)" id="f-iitZa6GQxUsgoD-yTYr"  >
<path style="stroke: rgb(255,243,18); stroke-width: 0; stroke-dasharray: none; stroke-linecap: butt; stroke-dashoffset: 0; stroke-linejoin: miter; stroke-miterlimit: 4; fill: rgb(255,178,18); fill-rule: nonzero; opacity: 1;" vector-effect="non-scaling-stroke"  transform=" translate(0, 0)" d="M 0 -31.69014 C 17.49296 -31.69014 31.69014 -17.49296 31.69014 0 C 31.69014 17.49296 17.49296 31.69014 0 31.69014 C -17.49296 31.69014 -31.69014 17.49296 -31.69014 0 C -31.69014 -17.49296 -17.49296 -31.69014 0 -31.69014 z" stroke-linecap="round" />
</g>
		<g transform="matrix(0.7 0 0 0.7 0 0)" id="yvQ-dPZPdMns8DQEVIC2n"  >
<path style="stroke: rgb(217,200,19); stroke-width: 0; stroke-dasharray: none; stroke-linecap: butt; stroke-dashoffset: 0; stroke-linejoin: miter; stroke-miterlimit: 4; fill: rgb(255,215,0); fill-rule: nonzero; opacity: 1;" vector-effect="non-scaling-stroke"  transform=" translate(0, 0)" d="M 0 -26.05634 C 14.3831 -26.05634 26.05634 -14.383099999999999 26.05634 0 C 26.05634 14.3831 14.383099999999999 26.05634 0 26.05634 C -14.3831 26.05634 -26.05634 14.383099999999999 -26.05634 0 C -26.05634 -14.3831 -14.383099999999999 -26.05634 0 -26.05634 z" stroke-linecap="round" />
</g>
		<g transform="matrix(0.99 0 0 0.45 1.74 18.98)" id="4-GDmWAuNAiaqY6-QBv2Q"  >
<path style="stroke: rgb(93,219,44); stroke-width: 0; stroke-dasharray: none; stroke-linecap: butt; stroke-dashoffset: 0; stroke-linejoin: miter; stroke-miterlimit: 4; fill: rgb(255,215,0); fill-rule: nonzero; opacity: 1;" vector-effect="non-scaling-stroke"  transform=" translate(0, 0)" d="M -44.65944 -44.65944 L 44.65945 -44.65944 L 44.65945 44.65945 L -44.65944 44.65945 z" stroke-linecap="round" />
</g>
</g>
</g>
<g transform="matrix(-0.22 0.13 -0.13 -0.22 153.34 129.61)" id="0KIgJPiZILL0dlNK7XDvF"  >
<g style="" vector-effect="non-scaling-stroke"   >
		<g transform="matrix(1.22 0 0 1.22 0 0)" id="-Z7JDYPr3flQ1kxhIBWbV"  >
<path style="stroke: rgb(255,243,18); stroke-width: 0; stroke-dasharray: none; stroke-linecap: butt; stroke-dashoffset: 0; stroke-linejoin: miter; stroke-miterlimit: 4; fill: rgb(255,178,18); fill-rule: nonzero; opacity: 1;" vector-effect="non-scaling-stroke"  transform=" translate(0, 0)" d="M 0 -31.69014 C 17.49296 -31.69014 31.69014 -17.49296 31.69014 0 C 31.69014 17.49296 17.49296 31.69014 0 31.69014 C -17.49296 31.69014 -31.69014 17.49296 -31.69014 0 C -31.69014 -17.49296 -17.49296 -31.69014 0 -31.69014 z" stroke-linecap="round" />
</g>
		<g transform="matrix(0.7 0 0 0.7 0 0)" id="hCCnfjShb8o3Cojq6SxXK"  >
<path style="stroke: rgb(217,200,19); stroke-width: 0; stroke-dasharray: none; stroke-linecap: butt; stroke-dashoffset: 0; stroke-linejoin: miter; stroke-miterlimit: 4; fill: rgb(255,215,0); fill-rule: nonzero; opacity: 1;" vector-effect="non-scaling-stroke"  transform=" translate(0, 0)" d="M 0 -26.05634 C 14.3831 -26.05634 26.05634 -14.383099999999999 26.05634 0 C 26.05634 14.3831 14.383099999999999 26.05634 0 26.05634 C -14.3831 26.05634 -26.05634 14.383099999999999 -26.05634 0 C -26.05634 -14.3831 -14.383099999999999 -26.05634 0 -26.05634 z" stroke-linecap="round" />
</g>
		<g transform="matrix(0.99 0 0 0.45 1.74 18.98)" id="J_B9qtyFMV0V4Q3qbSJ-z"  >
<path style="stroke: rgb(93,219,44); stroke-width: 0; stroke-dasharray: none; stroke-linecap: butt; stroke-dashoffset: 0; stroke-linejoin: miter; stroke-miterlimit: 4; fill: rgb(255,215,0); fill-rule: nonzero; opacity: 1;" vector-effect="non-scaling-stroke"  transform=" translate(0, 0)" d="M -44.65944 -44.65944 L 44.65945 -44.65944 L 44.65945 44.65945 L -44.65944 44.65945 z" stroke-linecap="round" />
</g>
</g>
</g>
<g transform="matrix(0.95 0 0 0.95 107.77 122.91)" id="iQ_BziAojZgiVpn3J9gph"  >
<path style="stroke: rgb(108,99,73); stroke-width: 0; stroke-dasharray: none; stroke-linecap: butt; stroke-dashoffset: 0; stroke-linejoin: miter; stroke-miterlimit: 4; fill: rgb(255,255,255); fill-rule: nonzero; opacity: 1;" vector-effect="non-scaling-stroke"  transform=" translate(0, 0)" d="M -5.19006 -2.9881 C -5.19006 -4.20421 -4.20421 -5.190060000000001 -2.9880999999999998 -5.190060000000001 L 2.9881000000000006 -5.190060000000001 L 2.9881000000000006 -5.190060000000001 C 4.204210000000001 -5.190060000000001 5.190060000000001 -4.204210000000001 5.190060000000001 -2.9881000000000006 L 5.190060000000001 2.9880999999999998 L 5.190060000000001 2.9880999999999998 C 5.190060000000001 4.20421 4.204210000000001 5.19006 2.9881000000000006 5.19006 L -2.9880999999999998 5.19006 L -2.9880999999999998 5.19006 C -4.20421 5.19006 -5.19006 4.20421 -5.19006 2.9880999999999998 z" stroke-linecap="round" />
</g>
<g transform="matrix(0.58 0.33 -0.33 0.58 137.58 153.18)" id="t7beQp6rPGRUQdK8y3lJq"  >
<path style="stroke: rgb(108,99,73); stroke-width: 0; stroke-dasharray: none; stroke-linecap: butt; stroke-dashoffset: 0; stroke-linejoin: miter; stroke-miterlimit: 4; fill: rgb(255,255,255); fill-rule: nonzero; opacity: 1;" vector-effect="non-scaling-stroke"  transform=" translate(0, 0)" d="M -5.19006 -2.97857 C -5.19006 -4.19994 -4.19994 -5.190049999999999 -2.97858 -5.190049999999999 L 2.97856 -5.190049999999999 L 2.97856 -5.190049999999999 C 4.19993 -5.190049999999999 5.19004 -4.199929999999999 5.19004 -2.9785699999999995 L 5.19004 2.9785700000000004 L 5.19004 2.9785700000000004 C 5.19004 4.199940000000001 4.19992 5.19005 2.97856 5.19005 L -2.97858 5.19005 L -2.97858 5.19005 C -4.19995 5.19005 -5.19006 4.19993 -5.19006 2.9785700000000004 z" stroke-linecap="round" />
</g>
<g transform="matrix(0.58 0.33 -0.33 0.58 110.5 169.51)" id="_7TjN1Eux-XKuqZjjmMHL"  >
<path style="stroke: rgb(108,99,73); stroke-width: 0; stroke-dasharray: none; stroke-linecap: butt; stroke-dashoffset: 0; stroke-linejoin: miter; stroke-miterlimit: 4; fill: rgb(255,255,255); fill-rule: nonzero; opacity: 1;" vector-effect="non-scaling-stroke"  transform=" translate(0, 0)" d="M -5.19006 -2.98946 C -5.19006 -4.20482 -4.20482 -5.19006 -2.98946 -5.19006 L 2.98945 -5.19006 L 2.98945 -5.19006 C 4.20481 -5.19006 5.19005 -4.20482 5.19005 -2.98946 L 5.19005 2.98945 L 5.19005 2.98945 C 5.19005 4.20481 4.20481 5.19005 2.98945 5.19005 L -2.98946 5.19005 L -2.98946 5.19005 C -4.20482 5.19005 -5.19006 4.20481 -5.19006 2.98945 z" stroke-linecap="round" />
</g>
<g transform="matrix(1.7 0 0 1.7 110.85 150.32)" id="lMZxBHe_6RTHm40poauyN"  >
<path style="stroke: rgb(167,14,197); stroke-width: 0; stroke-dasharray: none; stroke-linecap: butt; stroke-dashoffset: 0; stroke-linejoin: miter; stroke-miterlimit: 4; fill: rgb(252,156,29); fill-rule: nonzero; opacity: 1;" vector-effect="non-scaling-stroke"  transform=" translate(0, 0)" d="M 0 -3.07017 C 1.69473 -3.07017 3.07017 -1.69473 3.07017 0 C 3.07017 1.69473 1.69473 3.07017 0 3.07017 C -1.69473 3.07017 -3.07017 1.69473 -3.07017 0 C -3.07017 -1.69473 -1.69473 -3.07017 0 -3.07017 z" stroke-linecap="round" />
</g>
<g transform="matrix(1.71 0 0 1.71 125.64 160.79)" id="SK0pZvN4pObsiuwnW9dfF"  >
<path style="stroke: rgb(167,14,197); stroke-width: 0; stroke-dasharray: none; stroke-linecap: butt; stroke-dashoffset: 0; stroke-linejoin: miter; stroke-miterlimit: 4; fill: rgb(252,156,29); fill-rule: nonzero; opacity: 1;" vector-effect="non-scaling-stroke"  transform=" translate(0, 0)" d="M 0 -3.07017 C 1.69473 -3.07017 3.07017 -1.69473 3.07017 0 C 3.07017 1.69473 1.69473 3.07017 0 3.07017 C -1.69473 3.07017 -3.07017 1.69473 -3.07017 0 C -3.07017 -1.69473 -1.69473 -3.07017 0 -3.07017 z" stroke-linecap="round" />
</g>
<g transform="matrix(1.71 0 0 1.71 121.18 136.78)" id="nYTlQ_qhu6J1fgoez2EsW"  >
<path style="stroke: rgb(167,14,197); stroke-width: 0; stroke-dasharray: none; stroke-linecap: butt; stroke-dashoffset: 0; stroke-linejoin: miter; stroke-miterlimit: 4; fill: rgb(252,156,29); fill-rule: nonzero; opacity: 1;" vector-effect="non-scaling-stroke"  transform=" translate(0, 0)" d="M 0 -3.07017 C 1.69473 -3.07017 3.07017 -1.69473 3.07017 0 C 3.07017 1.69473 1.69473 3.07017 0 3.07017 C -1.69473 3.07017 -3.07017 1.69473 -3.07017 0 C -3.07017 -1.69473 -1.69473 -3.07017 0 -3.07017 z" stroke-linecap="round" />
</g>
<g transform="matrix(1.55 0 0 1.55 125.46 149.45)" id="KN7_EoBCJcQOfNAnMtiOA"  >
<path style="stroke: rgb(12,22,190); stroke-width: 0; stroke-dasharray: none; stroke-linecap: butt; stroke-dashoffset: 0; stroke-linejoin: miter; stroke-miterlimit: 4; fill: rgb(255,243,18); fill-rule: nonzero; opacity: 1;" vector-effect="non-scaling-stroke"  transform=" translate(0, 0)" d="M -2.41228 -2.41228 L 2.41228 -2.41228 L 2.41228 2.41228 L -2.41228 2.41228 z" stroke-linecap="round" />
</g>
<g transform="matrix(1.34 0.77 -0.77 1.34 107.77 135.65)" id="4_7kK_Dbmfeuk38uhXmLB"  >
<path style="stroke: rgb(12,22,190); stroke-width: 0; stroke-dasharray: none; stroke-linecap: butt; stroke-dashoffset: 0; stroke-linejoin: miter; stroke-miterlimit: 4; fill: rgb(255,243,18); fill-rule: nonzero; opacity: 1;" vector-effect="non-scaling-stroke"  transform=" translate(0, 0)" d="M -2.41228 -2.41228 L 2.41228 -2.41228 L 2.41228 2.41228 L -2.41228 2.41228 z" stroke-linecap="round" />
</g>
</svg>